<svg xmlns="http://www.w3.org/2000/svg" viewBox="0 0 3200 2534" height="2534" width="3200"><path stroke-linecap="round" stroke-width="6" stroke="#1a1a1a" fill="none" d="M2048.8 1486.3v11.9m-6.4-9.8v12.7m-6.4-9.7v17m-6.4-15v13.9m-6.4-12.2v16.8m-6.4-15.7v13.7m-6.4-12.8v15.3m-6.4-15.9v12.4m-6.4-13v20.5m-6.4-21v16.7m-6.4-18.5v20.7m-6.4-24v23.8m-6.4-25v14.2m-6.4-15.4v15.4m80.5-735.4l1.9.6c-7.8 13-15.4 27.6-7.4 45a46.5 46.5 0 00.9 1.7 851.4 851.4 0 00-20 80c-6.8 41.9-10.3 82.8-8.4 124.3 1.8 40.2 13.8 83.1 20.5 127 6.2 40.2 19.3 78.4 18.3 127.5-.5 25.7-6.6 54.2-12.8 81-6.2 26.7-12.5 51.8-14 66.2-1.9 17.5 8.3 24.8 12.8 32.6 6.4 11.2 14.5 22.4 8.5 25.9-24.6 10.2-48.8 13.2-77 1.4-8.4-3.5-1.1-24.1 5.4-32 6.9-8.5 11.5-12.2 13.6-31.8 2-19.8 8.7-44.6 14.8-70.7 6-26.1 11.5-53.3 11.8-73.3.8-42-11-77.1-17.8-121.3-6.2-40.6-18.9-84.7-21-130.8-2-44.7 1.7-88.3 9-132a933.9 933.9 0 0124.1-96.3c11.3.7 26-12.2 36.8-25z" stroke-miterlimit="6.8" stroke-linejoin="round"/><path stroke-linecap="round" stroke-width="6" stroke="#1a1a1a" fill="none" d="M2030.6 833.2s-4.3-6.7-12-6.7c-7.4 0-11.6-6-11.6-6m4 105.1s-6-5.3-12.7-5.3c-6.5 0-12.2-5.7-12.2-5.7m18.9 47s-4.5-5.2-11.2-5.5c-6.8-.3-10-7-10-7m30 120.8a60 60 0 01-25.1-3m28 27.6c-7.4-.4-14.6-.3-23.9-3.7m27 26.3c-7.3.5-14.6 0-21.8-2m28.2 24c-7 .7-14.2.9-22.4-1.5m25.6 23.6c-7.4.4-14.9 0-22.4-1.4m28.1 25c-6.6.6-13.7.7-24-1.7m33.9 114.4c-12.8-7.9-17.2-26.7-25-41m19.4 70.8a90.6 90.6 0 01-21.3-36.3m15 65.8a113.7 113.7 0 01-19.5-34.5m10.9 70.3c-7-9.3-13.9-19.3-19-34.8m-206.4-820.1c-33.4.8-68.2 19.3-86.2 48.6 6 .9 11.1 2.2 13.2 4.3l.3.3c12.3-16 31.4-26.1 45-30.6 39.8-13.3 54.8 3.3 54.5 11.4-1.2 23.8 6.5 32.8 15.7 36.6 1.7-.3 3.5-.4 5.4 0 2.6.4 4.6 1.4 6.3 2.8h.8c16.7 2 26.7-14.3.6-37.6 54.7 20.3 90.3 64.4 134 104.6 20.5 18.8 32.7 36.6 36.6 50.7 10.7 37.5-13.1 48.3-32.6 32.2 3.8 62.4 46.8 18.2 62.5-5.1-8.1 16.1-25.3 34.4-14.6 57.6 9.1 19.7 23.5 16.8 33 .8 4.6-14.3 3.8-22 5.3-36a61.7 61.7 0 009.3 26c15.5 24.5 39.6 27 51.8 15.2a47.4 47.4 0 0017-30.6c-22.3 17.3-34.7-.7-48.8-32.7-10-22.5-30.1-43.5-50.5-60-18.3-14.6-32-14.7-47.6-26.3-15.5-11.6-67.3-65.6-102.2-90.8-39.4-27.8-76-41.6-108.8-41.4zm-95.8 71c-1.2 4.3-2 8.9-2.4 13.5 3.1 1.7 6.1 3.7 9 6a87 87 0 015.4-17.6 46 46 0 00-12-2zm113.5 193.7l2.8 2a240.8 240.8 0 013.8 2.8l1.3 1 .6.4c.3.4.4.8 0 1.2h0c-.2.3-.5.4-1.2.1 0 0 0 0 0 0a7.2 7.2 0 01-.4-.3 33 33 0 01-1.1-1 131 131 0 01-3.2-3.2l-2.6-3zm-108.2 66.4s0 0 0 0 0 0 0 0z" stroke-miterlimit="6.8" stroke-linejoin="round"/><path fill="#1a1a1a" d="M1129.2 2011.2c17.9 1.2 31 4.4 39.3 9.6a36.2 36.2 0 0116.2 21c2.5 9 3.7 24.4 3.7 46.6v133.5c0 30.5-1 52.8-3.2 67-2 14-8 27.8-17.4 41.2a106 106 0 01-43.7 33.5 154 154 0 01-65.1 13.5c-30.5 0-54.9-6.7-73.1-20.1-18.4-13.4-29.5-29-33.4-47-4-17.9-6-48.2-6-91v-123.4c0-32.5 1-53.1 3-61.8 2.1-8.7 6.1-14.6 12-17.8 6-3.2 18.7-4.8 38-4.8h7.7V1998H828.1v13.2h9c19.8 0 32.6 1.8 38.5 5.2 5.9 3.5 9.7 9.8 11.6 18.8 1.8 9.1 2.7 29.2 2.7 60.4v162.1c0 31.6 5.2 56.8 15.5 75.6 10.3 18.8 27.5 34.1 51.7 46 24.2 11.8 53.7 17.7 88.6 17.7 29.4 0 55.4-4.6 78-13.8 22.5-9.3 40-21.7 52.5-37.3a103 103 0 0022.5-47.7c2.6-16.2 3.9-41 3.9-74.3v-130.3c0-23.9 1-40 2.9-48.3 2-8.2 7.1-15.7 15.7-22.4 8.6-6.6 21.6-10.5 38.9-11.7V1998h-131v13.2zm386.2 178.5a744 744 0 00-73.6-36.1c-35.3-15.8-59.7-30-73.1-42.7a60 60 0 01-20.5-46 62 62 0 0116.3-41.4c11-12.6 28-18.9 51.3-18.9 24.5 0 46 8.6 64.6 25.6 18.6 17.1 31.6 40.6 38.9 70.4h12.7V1998h-12.7a61.8 61.8 0 01-15 34.3c-15.4-16.9-30.5-28-45.1-33.5a134 134 0 00-46.8-8c-29.7 0-54.2 9.2-73.6 27.8a92.8 92.8 0 00-29 69.8 108.5 108.5 0 0050.9 91.2c16 10.1 39.6 21.9 71 35.4 35.3 15 59.6 29 72.9 42.2a67.4 67.4 0 0119.9 49.5c0 19.5-7.6 37.1-22.7 52.9-15.1 15.7-36.4 23.6-64 23.6-61.3 0-100.1-41.1-116.4-123.4h-14.5v126h14.5c3-16.4 7.7-29.1 14.1-38.2 28.7 33 64.5 49.4 107.5 49.4 37.4 0 67.2-10.5 89.6-31.5 22.3-21 33.5-48.2 33.5-81.8a111 111 0 00-13.9-56 102.5 102.5 0 00-36.8-38M1612 1998v13.2h7c19.9 0 32.7 1.8 38.6 5.2 5.9 3.5 9.7 9.8 11.5 18.8a402 402 0 012.8 60.4v192.2c0 32.7-1 53.6-2.8 62.5-1.8 9-6 15.6-12.4 19.8-6.5 4.3-18 6.4-34.8 6.4h-12.2v13.3h182.4v-13.3h-13.3c-18 0-30-2.3-36.3-7a31.1 31.1 0 01-11.7-21c-1.5-9.6-2.3-29.8-2.3-60.6v-97.2h36.7c19.3 0 32.2 1.8 38.8 5.4 6.7 3.5 11.7 10.2 15.1 19.9 3.4 9.7 5 23 5 39.7h14.5v-138.4h-14.4c0 24-4 40.1-11.8 48.1-7.7 8-23.5 12-47.2 12h-36.7v-166.2h76.6c24.3 0 41.5 1.8 51.7 5.2 10.2 3.5 20 12.2 29.4 26.2a122 122 0 0118 53h13.3l-3.2-97.6zm806.5 485.7c-25 0-58.9-7.4-101.6-22.4-55.6-19.3-104.8-29-147.5-29-4.5 0-9.6.3-15.6.8l86.3-47.3c44.3-14 78.1-38.2 101.5-72.9a209 209 0 0035-119.6c0-38.7-8.9-74-26.8-105.9-17.9-31.9-44.3-56-79.1-72.3a253.1 253.1 0 00-108.3-24.4c-60.6 0-111.1 18.4-151.4 55-40.4 36.8-60.6 85.3-60.6 145.6 0 62.2 19.9 112 59.7 149.5 39.7 37.5 91 56.2 154 56.2 10.4 0 20.1-.5 29.2-1.4l-53.4 30.6a291.2 291.2 0 01-14.4 7.5 639.6 639.6 0 00-46.8 24.5c-8.2 5-12.4 10-12.4 14.9 0 6.3 3.5 9.5 10.4 9.5 4.4 0 12.4-4.9 24-14.5 17.3-14.6 35.2-22 53.6-22 30.8 0 69.4 14.8 115.6 44.3a409 409 0 0062.8 34c16 6.4 34 9.6 53.6 9.6 29.8 0 54.2-8.3 73-24.9a99.1 99.1 0 0033.3-64.7h-12.3c-6.6 26.2-27.1 39.3-61.8 39.3m-251-101.1c-50.3 0-88-15.8-113.2-47.4-25.1-31.6-37.7-79-37.7-141.9 0-62 12.6-108.9 37.7-140.6 25.2-31.7 61.3-47.5 108.6-47.5 47.9 0 84.5 16.2 109.7 48.7 25.3 32.4 38 79 38 140 0 62.6-13 109.7-38.5 141.3-25.6 31.6-60.5 47.4-104.6 47.4" clip-path="url(#b)"/><path paint-order="markers fill stroke" fill="none" d="M1389 1805.2l-20.6 1.5c-6.3.6-10.4 3.2-18.2.5-.8-.3-1.7-.7-2.5-1.2a9 9 0 01-.9 3.5c-1.7 3.5-1.7 8.2-1 9.9 2.1 4.4 7 6.7 14 6.7 3 0 11.7-4.2 23-3.5 4.6.2 8.6 2.2 11.7 5z" stroke="#1a1a1a" stroke-width="6" stroke-miterlimit="6.8" stroke-linecap="round" stroke-linejoin="round"/><path stroke-width="6" stroke="#1a1a1a" fill="none" d="M2157.9 1685l26.5.1c36 0 55.6 35.3 40.7 61.5-5.9 10.4-19.2 15.3-21 32.2l-4 36.5c-.8 6.3-4.1 9.6-11 9-22.6-2.1-42.3-2.3-63-6.2-33.4-6.4-70.1-6.2-143.2 7.5-42.6 8-95.3 16.4-171 29.6-7.4 1.3-11 7.4-24.5 6.9-7-.2-15.3-6.7-15.9-15-.5-6.5 3.3-15 11.1-15.5 7.9-.5 15.9 3.5 22.5 3.5 9.3 0 18.2-3.5 22.1-12 2.4-5 1.7-12-1-17.5 1-1.4 2-2.8 2.6-4 2-4.3 3-8.3 4-13.2 4.3-21.2 5.9-44.4 8-68.6v-.4l8.8-.4c33.5-2 66.5-1 99.6-6.5 29.6-4.8 46-19.1 86.7-23.4 37-3.9 88.3-4.2 122-4zm-1150.9 0l-26.5.1c-36 0-55.6 35.3-40.7 61.5 5.9 10.4 19.2 15.3 21 32.2l4 36.5c.8 6.3 4 9.6 11 9 22.6-2.1 42.3-2.3 63-6.2 33.4-6.4 70.1-6.2 143.2 7.5 42.5 8 95.3 16.4 171 29.6 7.3 1.3 11 7.4 24.5 6.9 7-.2 15.3-6.7 15.9-15 .5-6.5-3.3-15-11.1-15.5-7.9-.5-15.9 3.5-22.5 3.5-9.3 0-18.2-3.5-22.1-12-2.4-5-1.7-12 1-17.5-1-1.4-2-2.8-2.6-4-2-4.3-3-8.3-4-13.2-4.3-21.2-5.9-44.4-8-68.6v-.4l-8.8-.4c-33.5-2-66.5-1-99.7-6.5-29.5-4.8-45.9-19.1-86.6-23.4-37-3.9-88.3-4.2-122-4z" stroke-miterlimit="6.8" stroke-linecap="round" stroke-linejoin="round"/><path stroke-width="6" stroke="#1a1a1a" fill="none" d="M1582 1664.2c-49 0-144.7 2.8-218.2 10-32.4 3.2-38.2 16-26.7 36.8a18 18 0 012 7.5c2 24.4 3.7 47.2 7.7 67 3.5 17.5 6.7 13.5 20.8 12.2 52.4-4.8 91.4-2.3 146.2 3.6 17.5 1.8 46 8 68.2 8 22.2 0 50.6-6.2 68.2-8 54.7-6 93.7-8.4 146.2-3.6 14 1.3 17.2 5.3 20.8-12.3 4-19.7 5.6-42.5 7.7-66.9a18 18 0 012-7.5c11.4-20.7 5.6-33.6-26.8-36.8-73.5-7.2-169.1-10-218.1-10z" stroke-miterlimit="6.8" stroke-linecap="round" stroke-linejoin="round"/><path fill="#1a1a1a" d="M1029.6 1752.8l-.9-7.2q-.7-5.9-3.4-8.6-2.7-2.7-7.2-2.2-3.7.5-6 3.1-2.2 2.7-1.7 6 .3 3.3 3 5.6 2.8 2.3 10.9 5.5l2.5 1q19.9 7.7 21.3 19.2 1.3 10.7-5.4 18.3-6.7 7.5-19.3 9-10.6 1.4-18.3-3.6-7.7-5-8.7-13.7-1-7.5 3.2-13 4.1-5.6 11.3-6.5 6.2-.7 10.9 2 4.6 2.8 5.2 7.4.5 3.5-1.5 5.8t-5.8 2.7q-1.2.2-2 .1-.8 0-1.5-.4v-1.8q2.4-.4 3.8-2.4 1.5-2 1.1-4.6-.4-3-3-4.7-2.7-1.7-6.5-1.3-5.1.7-8 4.8-3 4.2-2.2 9.8.9 7.6 7.7 12.4 6.9 4.6 15.6 3.5 8.3-1 13.2-6.6 4.8-5.7 4-13.1-.7-4.6-3.6-7.5-3-2.8-12-6.6l-3-1.2q-16.8-6.9-18-16-.7-6.2 3-11 3.8-4.7 9.8-5.5 2.4-.3 4.5 0 2.1.4 4.5 1.4l-.6-5.2 3-.3 3.1 25zm26.7.6l-3.9.2-.6-2 4.4-.2-.7-14 7-7.5 1 21 9.2-.4.2 2-9.2.5 1.7 32.7q.2 4.1 2 6.2 1.9 2 5.2 1.8 2.4 0 4.2-1.2 2-1.2 3-3.2l.7-1.4q1-2.6 2.3-2.7.6 0 1 .5.4.4.4 1 .1 2.7-3.6 6-3.8 3.3-8.8 3.6-6 .3-9.8-3.2-3.8-3.6-4.1-9.7zm56.2 7q.2-3.5-.7-5-1-1.7-3.2-1.8l-2.6-.2.1-2.2 14.3.9-2.2 35.7q-.2 3.5.7 5 1 1.6 3.1 1.7l1.8.1-.2 2.2-13.3-.8.3-5q-2.9 2.8-5.8 4.1-2.9 1.4-5.7 1.2-4.9-.3-7.3-3.4-2.4-3-2-8.5l1.5-25.3q.2-3.5-.8-5-.9-1.6-3-1.8l-2.7-.1.1-2.3 14.3.9-2 34.1q-.3 3.6 1 5.5 1.5 2 4.3 2.2 2.7.1 5-1.6 2.2-1.7 3.4-5zm58.5 8.4q-1.6-4-5.4-7-3.7-3-8.4-3.6-7.4-1.1-12.8 3.1-5.4 4.3-6.6 12-1.5 10 3 17.2 4.5 7.2 13 8.4 3.2.5 6.4 0 3.2-.6 6.6-2.3zm4.5-30l-3.9 2.5-1.2-1.8 14.7-10.2 1.2 1.8-2.5 1.8-9.4 62.7q-.5 3.5.2 5 .8 1.7 3 2l1.8.3-.4 2.2-13.2-2 .7-4.1q-4.1 2.1-8 2.9-4 .7-8 .1-10.2-1.5-16-8.9-5.9-7.4-4.4-17 1.5-10.2 9.4-16 7.9-5.7 18-4.1 4.9.7 8.4 2.5 3.5 1.9 5.9 5zm20.7 7.2q.3-1.6 1.7-2.5 1.4-1 3-.7 1.8.3 2.7 1.7 1 1.4.6 3-.3 1.7-1.7 2.7-1.4 1-3 .7-1.6-.3-2.6-1.8t-.7-3zm-1.6 53.7q-.6 3.4 0 5 .8 1.6 3 2l1.6.3-.4 2.2-17-3.1.4-2.2 4 .7 6-33.4-3.7 2.4-1.2-1.8 15-9.6 1.2 1.8-2.6 1.7zm36.3-21q.6-3.5-.2-5.1-.7-1.7-2.9-2.1l-2.6-.5.4-2.2 14 2.5-6.2 35.3q-.6 3.4.2 5 .7 1.6 3 2l1.6.3-.4 2.2-13-2.3.8-5q-3.2 2.5-6.2 3.5t-5.9.5q-4.8-.8-6.8-4.2-2-3.3-1.1-8.7l4.4-25q.6-3.3-.2-5-.7-1.7-2.9-2.1l-2.6-.5.4-2.2 14 2.5-5.9 33.7q-.6 3.5.6 5.6t4 2.6q2.6.5 5-1t4-4.6zm28-.3q3.2-1.9 5.8-2.6 2.6-.8 4.6-.4 3 .5 4.6 2 1.8 1.6 2.6 4.5 3.1-2 5.9-3 2.8-.8 5-.4 4.3.7 6 4 1.8 3.2.9 8.6l-4.3 25.1q-.6 3.5.2 5 .7 1.7 3 2l1.5.3-.3 2.3-16-2.8.3-2.2 2.9.5 5.5-32.2q.6-3.3-.2-5.1t-3.1-2.2q-1.8-.3-3.7.5-1.9.8-3.5 2.5l-4.9 28.3q-.5 3.5.2 5 .7 1.7 3 2l.8.2-.4 2.2-15.2-2.6.3-2.2 3 .5 5.5-32.2q.5-3.3-.3-5-.8-1.9-3.1-2.3-1.7-.3-3.6.5-1.8.8-3.6 2.5l-4.8 28.3q-.6 3.4.2 5 .7 1.7 3 2l.7.2-.4 2.2-16.2-2.8.4-2.2 3.9.7 5.7-33.6-3.8 2.5-1.2-1.7 15-9.9 1 1.8-2.5 1.8zm698-37.5l.4 3-7 1.1 10.4 61.3 3.7-.6q7-1.2 9.4-4.6 2.5-3.6 1.2-10.7l-2-12.6 3-.6 5.8 33.7-3.2.5-.8-5-32.6 5.6-.5-3 7-1.1-9.3-55.1q-.6-3.7-1.9-4.8-1.2-1.1-4.3-.6l-1.9.3-.5-3zm53.4 52l-2-13.1q-3-2.5-5.6-3.4-2.5-1-4.8-.6-4 .6-6.2 3.8-2 3.1-1.4 7.7.9 5.8 4.6 9.5 3.8 3.6 8.1 3 2.7-.4 4.7-2.2 1.9-1.9 2.6-4.8zm7.3-1.7q.5 3.5 1.7 4.8 1.3 1.3 3.5 1l1.6-.3.3 2.2-13.2 2-.6-4.2q-1.6 2.9-4.1 4.7-2.6 1.8-5.9 2.3-6 .9-10.5-2.6-4.5-3.4-5.4-9.6-1-6.3 3.1-11.8 4.1-5.6 10.2-6.5 2.4-.3 4.7 0 2.3.4 4.6 1.5l-1.1-7.7q-.7-4.3-3-6.2-2.4-2-6.3-1.3-4.6.7-7.2 5.2-2.4 4.4-2 11.4l-2 .3-3-20 2-.2 1.2 8.2q2.5-3.2 5.4-5 3-1.9 6.4-2.4 6.4-1 10.9 2.3 4.4 3.2 5.4 9.9zm20-.3q3.3 1.9 6.4 2.6 3.1.8 6.3.5 8.5-.7 13.4-7.6 5-6.9 4.1-16.9-.7-8-5.8-12.4-5-4.6-12.6-4-4.6.4-8.6 3.1t-5.7 6.7zm-10.9 7.5l-.2-2.2 4-.3-5.5-62.6-3 3.3-1.6-1.4 11.9-13.4 1.6 1.5-2 2.3 2.7 31.9q2.8-3 6.4-4.5 3.7-1.7 8.3-2.1 10.2-.9 17.7 5.4 7.5 6.2 8.4 16.4.8 9.6-5.5 16.7-6.2 7-16.5 8-4 .3-8-.7-3.8-1-7.7-3.4l.4 4.1zm81.4-44.4q-6.6-.8-11 2.9-4.5 3.6-5.3 10.5-1.1 9.6 4.5 18.1 5.7 8.5 14.2 9.5 6.5.7 11-3 4.3-3.7 5.2-10.6 1-9.6-4.6-18t-14-9.4zm3.8-2.7q10.6 1.3 16.6 8.6 6 7.2 4.8 17-1.2 10.4-8.7 16.2-7.5 5.8-18 4.6-10.5-1.3-16.6-8.6-6-7.3-4.9-17.1 1.3-10.3 8.8-16 7.6-5.9 18-4.7zm39.2 11.4q3.2-2.7 5.7-3.8 2.6-1 5-.8 1.3.1 2.3.6 1.2.4 2.2 1.2l.4-4 2.1.2-1.9 18.9-2.1-.2.4-4.4q.4-3.6-1.4-6-1.8-2.5-4.8-2.8-2.2-.2-4.3.9t-4 3.5l-2.7 27.6q-.4 3.5.5 5 .9 1.6 3 1.8l1.7.2-.2 2.2-17.2-1.7.2-2.2 4 .4 3.3-33.9-3.6 2.8-1.3-1.7 14.2-10.9 1.3 1.8-2.5 1.9zm-768.3-16.4q4.3 3.6 9 5.3 4.6 1.6 9.3 1.3 9.3-.7 14.4-7.2 5.3-6.6 4.6-16.8-.8-10.9-8.4-18.4-7.6-7.5-17.2-6.9-4 .3-7.6 2.2-3.6 1.8-6.6 5.1zm-14.5 24.8l-.2-3 7.1-.5-3.9-55.7q-.3-3.7-1.4-5-1.2-1.1-4.3-1l-1.9.2-.2-3 16.2-1.1.3 4.3q4.3-3.2 8.6-5 4.3-1.7 9-2 12-.9 21 6.7 9 7.6 9.8 19.5.8 12.2-7.2 21t-20.8 9.7q-4.3.3-8.5-.4-4.2-.8-8.6-2.8l.5 7.7q.3 3.7 1.4 5 1.2 1.2 4.2 1l4.5-.4.2 3zm76.6-45q2.7-3.2 5-4.6 2.4-1.5 5-1.7 1.2 0 2.3.2 1.1.3 2.3.9l-.3-4 2.2-.2 1.1 19-2.1.1-.3-4.4q-.2-3.6-2.4-5.7-2-2.1-5.1-2-2.2.2-4.1 1.6-2 1.4-3.4 4l1.7 27.8q.2 3.5 1.3 5 1.1 1.3 3.4 1.2l1.6-.1.1 2.2-17.2 1-.2-2.2 4-.2-2.1-34-3.1 3.3-1.6-1.4 12.3-13 1.5 1.5-2 2.3zm39.7-4.9q-6.8.4-10.5 4.7t-3.4 11.3q.5 9.7 7.5 17 7 7.4 15.6 7 6.6-.3 10.3-4.7 3.7-4.4 3.3-11.4-.5-9.6-7.5-17-7-7.3-15.3-6.9zm3.2-3.2q10.6-.6 17.8 5.6 7.1 6.1 7.6 16 .6 10.4-5.8 17.4-6.5 7-17 7.5t-17.8-5.6q-7.2-6.2-7.7-16-.5-10.4 6-17.4 6.4-7 16.9-7.5zm69.1 55q-.2-7.8-7-13.4-6.7-5.6-15.4-5.3-6.4.2-10.4 4-3.8 3.8-3.7 9.6.3 8 7 13.7 6.7 5.8 15.4 5.5 6.6-.2 10.5-4 3.9-3.9 3.6-10zm-17.4-33.3q3.2-.1 5.1-2.2 1.9-2 1.7-5.5-.1-5.5-3.5-9.5t-7.8-3.9q-3.1.1-5 2.4t-1.8 6q.2 5 3.7 9 3.5 3.8 7.6 3.7zm-7 3q-4.3-1-6.8-4.2-2.6-3.2-2.7-7.5-.3-6.3 4-10.7 4.1-4.3 10.5-4.5 3.2-.1 6 1 2.8 1 5 3 1.1-.9 1.7-2.1.7-1.3.6-3 0-.8-.8-3.3v-.1l2.4-.9.9 2.5q.4 1.2.4 2.4 0 1.7-.8 3.6-.8 1.8-2.5 3.5.6 1.4.8 2.8l.4 2.7q.1 4.9-2.4 8.5-2.5 3.6-7.3 5.4-1.2.5-3.4 1.1-4.8 1.3-4.8 3.6.1 2.1 5 2.8 2 .2 3 .5 9.3 1.7 13.9 6.4 4.6 4.6 4.9 12.6.3 9.5-5.8 16-6.1 6.7-15.6 7-9.7.3-16-5.1-6.4-5.5-6.7-14.1-.2-6.9 3.3-12.5t9.8-8.7q-.7-.7-1-1.5-.3-.7-.4-1.5 0-1.4 1-2.7 1-1.4 3.3-3zm40.6-22.1q3-3 5.3-4.3 2.5-1.4 5-1.4 1.2 0 2.3.4 1.2.3 2.3 1v-4.1h2l.2 19h-2.2v-4.4q0-3.6-2-5.8-2-2.3-5-2.3-2.3 0-4.3 1.4-2 1.3-3.5 3.8v27.8q0 3.5 1 5 1.1 1.4 3.4 1.4h1.6v2.3h-17.3v-2.2h4l-.2-34-3.3 3-1.5-1.5 13-12.2 1.5 1.6-2.3 2.1zm68.1 27.5q-4.3 7.2-10.3 10.8-6 3.7-13.4 3.4-10.6-.3-17-6.8-6.4-6.4-6-16.4.3-10.4 7.8-17 7.6-6.7 18.8-6.3 7.2.2 12.5 3.8 5.4 3.6 8.6 10.3l-40.7-1.3-.7 3.2-.2 2.3q-.3 9.5 5.5 16.6 5.7 7 14.1 7.2 5.9.2 10.7-2.5 4.8-2.8 8.3-8.4zm-38.8-21.4l30 1q-2.4-4-6.4-6.3-3.9-2.2-8.8-2.3-5-.2-8.9 1.8-3.8 2-5.9 5.8zm72.9-10.7l-.9 17-2.2-.1.1-3.4q.2-4-2-6.6-2.2-2.7-5.8-2.9-3-.1-5.2 1.5-2 1.6-2.2 4.1-.1 2 1.6 3.8 1.7 1.6 7 4.2 10 4.7 12.5 8 2.6 3.2 2.3 8.2-.3 6.4-6 10.6-5.5 4.2-13.4 3.8-7.8-.4-12.6-4.6-4.7-4.1-4.4-10 .2-4.2 3.3-7 3-2.7 7.2-2.5 3.3.2 5.5 2.1 2.1 2 2 4.5-.1 2.1-1.6 3.7t-3.4 1.5q-.8 0-1.4-.6-.6-.5-.5-1.1l.5-1.5q.5-1.2.5-2.2.1-1-1-2-1-1-2.5-1-2.6-.2-4.2 1.3-1.7 1.6-1.8 4.2-.2 4.6 4.3 8.5 4.5 3.8 10.9 4.1 5.7.3 9.3-2.3 3.6-2.7 3.9-7.2.1-3.3-1.8-5.5-2-2.3-10-6.2-7.5-3.6-9.7-6.2-2-2.6-1.9-6.5.3-4.5 3.7-7.4 3.5-2.9 8.4-2.7 2.2.2 4.5 1t4.5 2.3l.2-5zm38.9 2.2l-1 17h-2.3l.2-3.5q.3-4-2-6.6-2.2-2.7-5.7-3-3 0-5.2 1.5-2.1 1.5-2.3 4 0 2.2 1.6 3.9 1.7 1.7 7 4.2 10 4.9 12.4 8.2 2.6 3.2 2.3 8.2-.4 6.4-6 10.5-5.7 4.2-13.6 3.7-7.8-.5-12.5-4.6-4.7-4.2-4.4-10.2.3-4.2 3.4-6.9 3-2.7 7.2-2.4 3.3.2 5.5 2.1 2 2 2 4.5-.2 2.2-1.7 3.8-1.5 1.5-3.4 1.4-.8 0-1.4-.6-.5-.5-.5-1.2 0-.3.5-1.4.5-1.3.6-2.2 0-1-1-2-1.1-1-2.6-1.1-2.5-.2-4.2 1.3-1.6 1.6-1.8 4.2-.3 4.6 4.2 8.5 4.5 3.9 10.9 4.2 5.7.4 9.3-2.2 3.7-2.7 4-7.2.2-3.3-1.8-5.5-1.9-2.3-9.8-6.3-7.6-3.6-9.7-6.3-2-2.6-1.9-6.5.3-4.5 3.8-7.3 3.5-2.9 8.4-2.6 2.2.1 4.5 1 2.3.8 4.5 2.3l.2-5zm34.7 14.2q.3-3.4-.7-5-.9-1.6-3-1.7l-2.7-.2.1-2.2 14.2 1-2.3 35.7q-.3 3.4.6 5 1 1.5 3.2 1.6l1.7.2-.1 2.2-13.3-.9.3-5q-2.9 2.7-5.8 4-3 1.4-5.8 1.2-4.8-.3-7.2-3.4-2.4-3.1-2-8.6l1.6-25.3q.3-3.4-.7-5-.9-1.6-3-1.7l-2.7-.2.1-2.3 14.3 1-2.3 34.1q-.2 3.6 1.2 5.5 1.4 2 4.2 2.2 2.7.2 5-1.5 2.2-1.8 3.4-5zm45.2-8.7l-1.3 17-2.2-.2.2-3.3q.3-4-1.9-6.7-2.1-2.7-5.7-3-3-.2-5.2 1.3-2.1 1.6-2.3 4.1-.2 2 1.5 3.8 1.6 1.7 7 4.4 9.8 5 12.3 8.3 2.4 3.2 2 8.2-.4 6.4-6.1 10.5-5.7 4-13.6 3.5-7.8-.6-12.4-4.9-4.7-4.2-4.2-10.2.3-4.1 3.4-6.8 3.1-2.6 7.3-2.3 3.3.2 5.4 2.2 2 2 1.9 4.5-.2 2.2-1.7 3.7t-3.4 1.4q-.8 0-1.4-.6-.5-.5-.5-1.2 0-.3.5-1.4.6-1.3.7-2.2 0-1-1-2-1.1-1-2.6-1.2-2.5-.2-4.2 1.3-1.7 1.5-1.9 4.2-.3 4.6 4.1 8.5 4.5 4 10.8 4.4 5.7.4 9.4-2.1 3.7-2.6 4-7.1.3-3.3-1.6-5.6-1.9-2.3-9.8-6.4-7.5-3.7-9.6-6.4-2-2.6-1.7-6.5.3-4.6 3.8-7.3 3.5-2.9 8.4-2.5 2.3.2 4.5 1 2.3 1 4.5 2.4l.3-5z"/><path fill="none" d="M955.7 1815l.6.9v-.8zm45.5 16c-8 .5-16.2 1-24.7 1.8-2.3.2-4.8 0-7.2-.5 5.5 7 11.3 14.6 14.7 19.7 9.2 13.6 21.3 36.2 21.3 36.2s1-21.5 0-32.3c-.6-7-2.6-17.7-4-25z" stroke="#1a1a1a" stroke-width="6" stroke-miterlimit="6.8" stroke-linecap="round" stroke-linejoin="round"/><path paint-order="markers fill stroke" fill="none" d="M1775 1805.2l20.5 1.5c6.3.6 10.4 3.2 18.2.5.9-.3 1.7-.7 2.5-1.2a9 9 0 001 3.5c1.6 3.5 1.7 8.2.9 9.9-2.1 4.4-7 6.7-14 6.7-3 0-11.7-4.2-23-3.5-4.6.2-8.6 2.2-11.7 5z" stroke="#1a1a1a" stroke-width="6" stroke-miterlimit="6.8" stroke-linecap="round" stroke-linejoin="round"/><path fill="none" d="M2208.3 1815l-.7.9v-.8zm-45.6 16c8 .5 16.2 1 24.7 1.8 2.4.2 4.9 0 7.2-.5-5.5 7-11.3 14.6-14.7 19.7-9.2 13.6-21.3 36.2-21.3 36.2s-1-21.5 0-32.3c.6-7 2.7-17.7 4.1-25zM8.5 1983c-32-258.5 147.8-604.8 392.8-527.5-44.7 3-66.9 29.1-89.4 51.8 47.4-2 97.8-7.3 131.6 6-23 5.3-46 10.6-63.9 23.7 25 8.3 43.5 23 61.4 38.2 2.2-42.2 24.2-67.1 62-78.1-68.8 102.5 14 258.4 145.7 178.3-20-4-34.3-14.2-45-23 44.6 17.4 89.9 13.7 142.2-54.5-18.5 10-37.3 21-54 26.6 57-114.6 4.5-195.5-76.7-202.5-24.2-4.7-43.6-23.2-59-53.7 4.5 19 6.8 40.1 19 52-59.6-7.1-80.8-52.2-68.6-86.4-26.5-11.3-45.1-36.8-65-60.1-33 38-53.2 41-68.5 30.6 43.7-22.2 23.3-54.3 17.4-84l-26.4-67c-9-35-14.2-70.7 5-103-37.5 5.7-70-20.3-92-34.5 15.7 4 38.7 20.5 52.5-26.4C347 930.2 365.8 873 455.7 857.9c-11.3-10.4-25-10-39.4-6.6 1.2-23.7 33.4-25.9 61.2-31.2-33.3-53.7-75-66.5-115.8-83.3 47.7-34.9 149-3.2 182.7 30.1 22.2 22 28 35.9 45.4 38.2l26.4.3c15.1.2 11.6-21.3 3-26 8-1.4 19.9 5.6 29.3 10.5-3.3-42.3-37.2-62.7-62-79.9 34.9 14.6 76 19.5 113.1 67.3 5.3 6.7 8.5 12.2-.4 23.9-5.2 6.7.1 13.5 2.6 19.8 34-39 70-7.1 74.7 13.2-33.3-40-68.5-3.3-62.3 17.3 5.4-6 10.8-10 16.4-11 4 8 1.4 13 46 22.6 21.2 4.6 54.8 1.9 47.3 43.6 29-.7 53.7 8.2 61.5 54.4-10.4-.4-20.8-2.2-30.8 1.2 2.5 21.4 6.5 42.6 43 58 17.3 8.8 36.3 16.6 48.7 28.2 11.6-6.6 57.9-9.5 53.4 34.2 23.2 23.8 6 49.8-2.1 77-12.7 42.5-11.8 51.1 14.5 49.8-9.9 9.2-48.5 23-35.5-16.2 21.7-65.9 14.3-75.4 4.3-81-.8 8.6-4.7 15.5-8 22.8-7.1 15.4-13.2 14.4-24 12-51-10.8-42-21-49.1-29.1-5.5 5.7-7.8 22.1-4.6 37.5 8.6 3.5 16.4 2.3 31.5-.7 12.7-2.7 13 8.2 1 13.3-11 4.7-23.3 5.4-35.3 7l-8.7 53.1c-12.8 40.5-32.9 34.9-54 21.6 40.4 20 34.5-42.7 41.4-74.2-40.8-2.3-54.2-32.9-73.9-58.1-33.8-43.5-73.4-85.2-113.4-58.1-25.5 17.3-50.6 24.8-71.8-.1 17.4 89 58.7 160.3 191.2 162.7-10.2 10-19.4 20.3-40 26.8-142.4-23.5-163.7-92.7-186.2-161.5-18.2 43.8-45 117.5 126.8 224.5l-48.7-72.5c29.7 10.4 109.3 20.1 109.3 20.1 69.3 22 354 196 88 568 3.3-32.1 9.4-73 13.6-107.8-51.4 65.3-78.8 147-92.3 227.5-37.5-41-50-74.3-52.2-104.2-18.4 62.7-125 84.5-209.4 53.3-50.8-18.8-101.3-38.3-153.7-52-84.4 49.3-243 .7-228-156.9-15.5 41.6-33.5 79.9 44.9 243-55.8-34.4-75.4-100.7-85.1-175.9-7.4 84.8-39.2 165.6 39.2 263.8-52-15.2-80.6-79-68.5-226-28.9 47.8-50 106.4-52.4 190.7z" stroke="#1a1a1a" stroke-width="6" stroke-miterlimit="6.8" stroke-linecap="round" stroke-linejoin="round"/><path stroke-miterlimit="6.8" stroke-width="6" stroke="#1a1a1a" fill="none" d="M209.7 1586.9c-55.6 26.5-59.2 116.8-37 174.5 24.5 63.8 101 107.2 166.4 73 60.3-31.6 60.7-106.6 42.4-162-21.8-65.8-99.4-120-171.8-85.5zm203.7-389.7c-64.5-109.3-.7-183.9 94.4-220.2-74 65.8-101.7 141-94.4 220.2z" stroke-linecap="round" stroke-linejoin="round"/><path stroke-miterlimit="6.8" stroke-width="6" stroke="#1a1a1a" fill="none" d="M510.4 988.3c-92.7 127-34.2 246.1 87.7 285.6-87-90.8-99-169-87.7-285.6zM702.7 928c23.6-64.4 70.8-33.3 97.7 0 11.7 14 9.9 23 37.4 32.9a122 122 0 01-102-21.6c-14.2-11.5-22.6-13.6-33-11.3zm164.5 228.3c-.1-17.7-6-35 9.7-53.8l-51.6-39.9c-26.7-20.7-39.9-23.4-39.9-12.2 0 7.7-.9 15 17.9 40.4L831 1128a84.1 84.1 0 0036.2 28.2zm27.4-93.2c-.5 5.4 10.2 36.4 29.1 36.4a18 18 0 0017.6-18.2c-.2-7.2-6.4-15.2-16.2-12.6-6 1.5-15.8.4-21.8-1a25 25 0 01-8.7-4.6zm94.2-2c-4.2 10.4-9.7 14-15.1 16.4-14.7 6.2-8.9 25 7 19.3 10-3.5 13.7-25.3 8.1-35.7zM3155.4 1983c32-258.4-147.8-604.7-392.7-527.4 44.6 3 66.8 29.1 89.4 51.8-47.4-2-97.9-7.3-131.7 6 23 5.3 46 10.6 64 23.7-25 8.3-43.6 23-61.5 38.2-2.2-42.2-24.2-67.1-62-78.1 68.9 102.5-14 258.4-145.6 178.3 20-4 34.3-14.2 45-23-44.6 17.4-90 13.7-142.2-54.5 18.5 10 37.3 21 54 26.6-57.1-114.6-4.6-195.5 76.7-202.5 24.1-4.7 43.6-23.2 58.9-53.7-4.5 19-6.8 40.1-19 52 59.7-7.1 80.9-52.2 68.7-86.4 26.5-11.3 45-36.8 65-60.1 32.9 38 53 41 68.4 30.6-43.6-22.2-23.3-54.3-17.4-84l26.5-67c9-35 14.2-70.7-5-103 37.4 5.7 70-20.3 92-34.5-15.7 4-38.7 20.5-52.6-26.4-17.4-59.3-36.1-116.5-126.1-131.6 11.3-10.4 25-10 39.5-6.6-1.3-23.7-33.5-25.9-61.3-31.2 33.4-53.7 75-66.5 115.8-83.3-47.7-34.9-149-3.2-182.7 30.1-22.2 22-28 35.9-45.3 38.2l-26.4.3c-15.2.2-11.7-21.3-3-26-8-1.4-20 5.6-29.3 10.5 3.2-42.3 37.2-62.7 62-79.9-35 14.6-76 19.5-113.2 67.3-5.3 6.7-8.4 12.2.5 23.9 5.1 6.7-.2 13.5-2.6 19.8-34.1-39-70.1-7.1-74.7 13.2 33.2-40 68.4-3.3 62.3 17.3-5.4-6-10.9-10-16.5-11-4 8-1.4 13-45.9 22.6-21.3 4.6-54.8 1.9-47.3 43.6-29-.7-53.7 8.2-61.5 54.4 10.3-.4 20.8-2.2 30.7 1.2-2.4 21.4-6.5 42.6-43 58-17.2 8.8-36.3 16.6-48.6 28.2-11.6-6.6-58-9.5-53.4 34.2-23.2 23.8-6.1 49.8 2 77 12.8 42.5 11.8 51.1-14.4 49.8 9.8 9.2 48.4 23 35.5-16.2-21.8-65.9-14.4-75.4-4.4-81 .8 8.6 4.7 15.5 8 22.8 7.2 15.4 13.3 14.4 24 12 51-10.8 42.1-21 49.1-29.1 5.5 5.7 7.9 22.1 4.7 37.5-8.6 3.5-16.4 2.3-31.5-.7-12.8-2.7-13 8.2-1 13.3 11 4.7 23.3 5.4 35.2 7l8.7 53.1c12.9 40.5 32.9 34.9 54.1 21.6-40.4 20-34.6-42.7-41.5-74.2 40.9-2.3 54.2-32.9 73.9-58.1 33.9-43.5 73.5-85.2 113.5-58.1 25.5 17.3 50.6 24.8 71.7-.1-17.4 89-58.6 160.3-191.1 162.7 10.1 10 19.4 20.3 39.9 26.8 142.5-23.5 163.8-92.7 186.2-161.5 18.3 43.8 45 117.5-126.8 224.5l48.8-72.5c-29.7 10.4-109.3 20.1-109.3 20.1-69.4 22-354 196-88 568-3.4-32.1-9.4-73-13.7-107.8 51.5 65.3 78.8 147 92.3 227.5 37.6-41 50-74.3 52.3-104.2 18.4 62.7 125 84.5 209.3 53.3 50.8-18.8 101.3-38.3 153.8-52 84.4 49.3 243 .7 228-156.9 15.5 41.6 33.4 79.9-45 243 55.8-34.4 75.5-100.7 85.2-175.9 7.3 84.8 39.2 165.6-39.3 263.8 52-15.2 80.6-79 68.5-226 28.9 47.8 50 106.4 52.4 190.7z" stroke-linecap="round" stroke-linejoin="round"/><path stroke-miterlimit="6.8" stroke-width="6" stroke="#1a1a1a" fill="none" d="M2954.2 1586.9c55.6 26.5 59.3 116.8 37 174.5-24.5 63.8-101 107.2-166.4 73-60.3-31.6-60.7-106.6-42.3-162 21.8-65.8 99.4-120 171.7-85.5zm-203.6-389.7c64.5-109.4.7-183.9-94.4-220.2 73.9 65.8 101.7 141 94.4 220.2z" stroke-linecap="round" stroke-linejoin="round"/><path stroke-miterlimit="6.8" stroke-width="6" stroke="#1a1a1a" fill="none" d="M2653.6 988.3c92.6 127 34.1 246.1-87.8 285.6 87-90.8 99-169 87.8-285.6zM2461.2 928c-23.6-64.4-70.8-33.3-97.7 0-11.7 14-9.8 23-37.4 32.9a122 122 0 00102-21.6c14.2-11.5 22.7-13.6 33.1-11.3zm-164.5 228.3c.2-17.7 6.1-35-9.6-53.8l51.6-39.9c26.7-20.7 39.8-23.4 39.8-12.2 0 7.7 1 15-17.8 40.4L2333 1128a84.1 84.1 0 01-36.3 28.2zm-27.3-93.2c.4 5.4-10.3 36.4-29.2 36.4a18 18 0 01-17.5-18.2c0-7.2 6.4-15.2 16.2-12.6 6 1.5 15.7.4 21.8-1a25 25 0 008.7-4.6zm-94.3-2c4.3 10.4 9.7 14 15.2 16.4 14.6 6.2 8.8 25-7.1 19.3-10-3.5-13.7-25.3-8-35.7zM1155.6 553c-11 0-19.9 2.2-25.6 7.6-11.9 11.1-6.5 26.2-4.1 33 9.1-9.2 21.5-17.3 40.3-6.5 10.1 5.8 20 18.6 9.1 32.8-8.6 11.2-27.7 16-35.5 8.3-6.8-6.7-12.1-15.2-23-15.8-12.4-.6-23.2 8.3-22.3 18.7 1.6 17.6 25 24 46.5 23.3 10-.4 21-1.2 31.2-3.6-1-9.5.1-18.8 3.6-26a43 43 0 0135.5-25.6c-1.2-16-9-30.9-21.7-38.7l-5-1.6c-2.9-1-5.7-2.1-8.4-3.5-7.5-1.5-14.4-2.3-20.6-2.4z" stroke-linecap="round" stroke-linejoin="round"/><path stroke-width="6" stroke="#1a1a1a" fill="none" d="M1230.4 370.1c-27.9-.3-55.4 13.9-73.4 27.7-54 41.7-28.2 142.6 27.6 161 9.6 3.2 20 5.7 30.4 6.9a19.3 19.3 0 01-.7-5.3 19.3 19.3 0 0119.3-19.3 19.3 19.3 0 0119.2 19.3 19.3 19.3 0 010 .1c9-4.7 16-12.5 19.4-24.7 6-21-8-57-26.1-59 6.2 18-2.3 29.2-21 35.6 2.9-4.6 6.2-8.2 7.4-16.7 1-7.4-.4-16-6.3-19-8.8-4.8-24-.6-28.8 8-3.8 6.6-3.8 9.7-2.7 18.9a32.3 32.3 0 01-14.5-21.4c-4.2-20.2-.5-40.6 14.3-55.2 8-7.9 23.5-13 33.6-14.1-20.4 12-40.5 40.6-11.6 54.3 20.2-64 76.8-19.4 96.6 26a546 546 0 0024.2 49.5 131 131 0 0118.4-2.3c-16.2-32-32.9-70.8-49.6-111.7-19.5-43.6-47.8-58.3-75.7-58.6zm131.8 187.7c-5.7.1-10.4 1.1-14.2 2.6 18.1 27.6 35.2 41.6 54.2 49.8-12-10.7-24.5-29-37.3-52.3h-2.7z" stroke-miterlimit="6.8" stroke-linecap="round" stroke-linejoin="round"/><path paint-order="markers fill stroke" stroke-linecap="round" stroke-width="6" stroke="#1a1a1a" fill="none" d="M1252.8 560.4a19.3 19.3 0 01-19.2 19.3 19.3 19.3 0 01-19.3-19.3 19.3 19.3 0 0119.3-19.3 19.3 19.3 0 0119.2 19.3" stroke-miterlimit="6.8" stroke-linejoin="round"/><path stroke-width="6" stroke="#1a1a1a" fill="none" d="M1178.8 675a883.4 883.4 0 01-4.8 4.4c-2.6 12.8-6.6 30.8-9.2 42.3a27 27 0 002 16.8c3.5 5.8 9.7 8.8 16.5 7.5 7-1.3 13.2-9.9 13.1-17.1 0-6-.3-11-2.2-16-3.3-8.3-7.5-20-11-30a60.1 60.1 0 01-4.4-8z" stroke-miterlimit="6.8" stroke-linecap="round" stroke-linejoin="round"/><path stroke-width="6" stroke="#1a1a1a" fill="none" d="M1219.7 598.5c-19.9.2-34.8 7.6-43.9 26.2-3.8 8-4.7 18.4-3.3 28.8l20-18.8c0-2.6.7-5.3 2-8 3.5-7.7 12-10.9 19.6-12a781 781 0 0117-15.2 51 51 0 00-7.4-.9 85 85 0 00-4 0zm31.3 9.6c-4.7 3.7-9.4 7.6-14 11.5 2.4 2.2 3.6 4.8 2.6 7.8-2-1.7-4.4-3-6.8-4a719.8 719.8 0 00-21.5 20.1c3 4.5 7.3 8.8 12 11.7h25.4c9-5.1 15.2-15 15.1-25.5 0-8-5-15.8-12.8-21.6zm-51.1 46.5l-21.1 20.4a47.5 47.5 0 0013.8 18 69 69 0 0023 10v-34.7a30 30 0 01-11-7.8c-1.8-2-3.3-4-4.7-5.9zm-159.2-112.4c-6.5 0-13.6 2.6-20.7 9.3-16.2 15.5-11 21.3-11.6 31.7-11-4-25.4-8.8-38-7-12.5 1.9-32.5 7-42.7 36.6-10.1 29.7 9.1 69.4 31.3 71.6 22 2.3 27.1-4.6 26.6-24.8-.6-20.3-19-9.6-22.3-10.9-3.3-1.2-9.2-4.6-1.1-15.5 8-11 20.8-15 33.5-12.3 12.8 2.8 23.7 13 28.7 30.9-13.8-1.8-32 9.4-34.2 22.8-2.2 13.4 5.8 24 19.5 27.4-6.5-15.4-6-29.3 14.3-23.9 25.2 5.7 44.6 18.8 74 15 6.9-.9 13.6-2.2 20.2-3.7 11.7-6.2 22-8.6 33.2-17l6.8-5.6c-73.6-5.4-104.3-44.3-90-95.6-8.9 1.2-25.7 8.2-21 26-5.2-3.7-10-16.8-7.4-29.7 2.5-13 11.3-13.8 21-15.3a27.1 27.1 0 00-20.1-10zm34.4 183.7c-23.3.4-70.7 6.4-96.7 21a143.5 143.5 0 00-71.7 132.3c3 73.2 37 134.4 101.2 152.4 43.4 12.2 70 37.2 78.1 46.9 11.3 13.5 23.6 31.4 17.5 41.9-5.6 9.6-22.5 3.6-36.7.2-2.2 22.2 14 41.6 45 41.6 5.3 0 10.1-1 14.3-2.8l1.7-10.5c5-32.1 12.7-63.8 17.2-94.3a60.6 60.6 0 01-48.3-6.8c11.2-.4 34.7-4.3 51-16l.7-9.7c.5-11.8.6-23.5.3-35.2a175 175 0 01-41.9 19.2c-28.1 9.6-52.9 12.4-73.3 5.6-27.5-9-30.7-25-35.4-40.2 19 21.2 53.2 27 93.6 27 20.2 0 42-11.8 56.4-27.5a664.2 664.2 0 00-8.2-73.2 571.7 571.7 0 00-11.1-48.4 60.9 60.9 0 00-61-4.2c135 92.8-108.9 200.7-132 27.1-15.8-117.8 85.3-133.5 130-135 3-3.9 6-7.7 9.3-11.4zm122 271.5a89 89 0 01-12.1 31c-2.2 36.2-10.6 71.1-16.9 104 5.6 17.8 2.2 37.5-7.8 57.7a32 32 0 01-3.8 6c-4 19.9-8 38.8-9.5 58.8 19-.2 50.6-11.1 58.7-32.6 14.6-38.2 2.3-59.4-7.5-75.6 6 6.3 12.6 8.2 17.4 7.3v-36.6c-7.2-11.8-18.7-20-29-31.8 12.4-2.7 23.4-14.5 29-27.4v-39.3c-4-10.7-10.7-19.2-18.4-21.5zm-90.5 209c0 4.6.1 17 5.4 28.1 1.1-9.1 2.7-18 4.3-26.6-3.3-.4-6.6-1-9.7-1.5z" stroke-miterlimit="6.8" stroke-linecap="round" stroke-linejoin="round"/><path stroke-width="6" stroke="#1a1a1a" fill="none" d="M1065.9 737.3c-44.8 1.5-145.9 17.2-130.2 135 7 52.2 34 79 64.6 88.3 4 .5 8.1.7 12.5.7 48.8 0 71-34.2 71-57.3 0-57.4-64.4-70.8-84.4-36.6-11.4 19.7 12.4 40.1.6 53.5-7.4 8.3-13.8 5.3-19.8 1.3-35.9-23.5-28-96.5-3-131.3a114.6 114.6 0 0182.3-44c2-3.3 4-6.4 6.4-9.6zm129.7 51.4a39 39 0 01-41.2 14.6c3.6 12.3 7.5 26.1 11 40 18.8-6.3 39.5-31.3 30.2-54.6zm1.8 45.5c-6 10.9-18.6 17.1-29.6 18.1 2.2 8.8 4.2 17.4 5.8 25.4 13-7 25.3-18.8 23.8-43.5zm-84.8 654.6v11.9m6.4-9.8v12.7m6.4-9.7v17m6.4-14.9v13.8m6.4-12.2v16.9m6.4-15.8v13.7m6.4-12.8v15.3m6.4-15.9v12.4m6.4-13v20.5m6.4-21v16.7m6.4-18.5v20.7m6.4-24v23.9m6.4-25.1v14.2m6.4-15.4v15.4" stroke-miterlimit="6.8" stroke-linecap="round" stroke-linejoin="round"/><path stroke-width="6" stroke="#1a1a1a" fill="none" d="M1115.4 770.4l-1.9.6c7.8 13 15.4 27.6 7.3 45a46.5 46.5 0 01-.8 1.8 851.4 851.4 0 0119.9 80c6.9 41.8 10.4 82.7 8.5 124.3-1.9 40.1-13.9 83-20.6 126.8-6.2 40.3-19.2 78.5-18.3 127.7.5 25.6 6.7 54.2 12.9 80.9 6.2 26.7 12.5 51.9 14 66.2 1.9 17.6-8.3 24.8-12.8 32.6-6.5 11.2-14.6 22.4-8.5 26 24.6 10.1 48.7 13 76.9 1.3 8.5-3.5 1.2-24.1-5.3-32-7-8.5-11.5-12.2-13.6-31.8-2-19.8-8.7-44.5-14.8-70.7-6-26.1-11.5-53.3-11.9-73.2-.8-42.1 11.1-77.2 17.9-121.4 6.2-40.6 18.8-84.7 21-130.7 2-44.7-1.8-88.4-9-132a933.9 933.9 0 00-24.2-96.4c-11.3.7-25.9-12.2-36.7-25z" stroke-miterlimit="6.8" stroke-linecap="round" stroke-linejoin="round"/><path stroke-linecap="round" stroke-width="6" stroke="#1a1a1a" fill="none" d="M1130.8 835.7s4.4-6.6 12-6.6c7.4 0 11.7-6.2 11.7-6.2m-4.1 105.2s6-5.3 12.7-5.3c6.6 0 12.3-5.7 12.3-5.7m-18.9 47s4.4-5.2 11.1-5.5c6.9-.3 10-7 10-7m-29.9 120.8c7.9.5 16 .2 25-3m-28 27.6c7.5-.4 14.6-.3 24-3.7m-27 26.3c7.3.5 14.5 0 21.8-2m-28.2 24c7 .7 14.1 1 22.3-1.5m-25.6 23.6c7.5.4 15 0 22.4-1.4m-28 25c6.5.6 13.7.8 24-1.7m-34 114.5c12.9-8 17.2-26.7 25-41.1m-19.4 70.9a90.6 90.6 0 0021.4-36.3m-15 65.7c8.4-9.4 14.3-21.5 19.4-34.5m-10.8 70.4c7-9.4 13.8-19.4 19-34.9m206.3-820c-32.7-.3-69.3 13.5-108.8 41.3-34.9 25.2-86.6 79.2-102.1 90.8-15.6 11.6-29.4 11.7-47.7 26.4-20.3 16.4-40.5 37.4-50.4 59.9-14.2 32-26.6 50-48.9 32.8a47.4 47.4 0 0017 30.5c12.3 11.8 36.4 9.3 51.9-15.2 5-7.8 6.7-12.5 9.3-26 1.5 14 .6 21.8 5.2 36 9.5 16 24 19 33-.8 10.7-23.2-6.4-41.4-14.6-57.6 15.8 23.3 58.7 67.5 62.6 5.1-19.5 16.1-43.3 5.3-32.7-32.2 4-14.1 16.2-32 36.6-50.7 43.8-40.1 79.3-84.3 134-104.6-26 23.3-16 39.6.6 37.7 13-1.5 30-5 28.3-39.5-.4-8 14.7-24.7 54.5-11.4 15.6 5.2 38.6 17.8 50.2 38.4l3.1 5.8c2.5-1.3 6.4-2.7 10.8-2a14 14 0 013.4 1.1c-12.8-39-55.7-65-95.3-65.9zm479.3 97a42.5 42.5 0 00-26.8 11.6 67.5 67.5 0 0133.6 18.2c13.6.7 26.3-.5 36.6-6.4a68.3 68.3 0 00-43.4-23.5z" stroke-miterlimit="6.8" stroke-linejoin="round"/><path stroke-linejoin="round" stroke-width="6" stroke="#1a1a1a" fill="none" d="M1832.7 644c-7 .6-13.2 2-17.6 5a63.6 63.6 0 0120.8 8.4c9.8.4 18.9 0 26.3-2.8-8.4-6-18.1-9.7-29.5-10.5z" stroke-miterlimit="6.8" stroke-linecap="round"/><path stroke-linejoin="round" stroke-width="6" stroke="#1a1a1a" fill="none" d="M1809.7 648A80.5 80.5 0 011826 662a56.5 56.5 0 01-26.2 6.5 90.4 90.4 0 015.2 5.3l-3.2 1.6 3.8 1.8c17.6 1.8 34.1 1.7 47-5.6a68.4 68.4 0 00-42.9-23.4z" stroke-miterlimit="6.8" stroke-linecap="round"/><path stroke-linejoin="round" stroke-width="6" stroke="#1a1a1a" fill="none" d="M1825.1 662.3a53.8 53.8 0 01-21.1 5.8c9.6.4 18.5 0 25.8-2.8l-4.7-3zm-63.5-12.1c-7.2.8-13.7 2.6-19.2 5.7a89 89 0 016.7 6.7c-3.5 2-7.2 3.4-11.2 4.4 5.7 5.6 13 9 20.1 12.2 17.5 1.9 34 1.8 47-5.5a68.3 68.3 0 00-43.4-23.5z" stroke-miterlimit="6.8" stroke-linecap="round"/><path stroke-linejoin="round" stroke-width="6" stroke="#1a1a1a" fill="none" d="M1752.7 657c-2.8.2-5.4.6-8 1.1 1.6 1.4 3 3 4.4 4.5a44.5 44.5 0 01-9 3.8c3.2 1.4 6.7 2.5 10.2 3.6 11.9.8 23 .8 31.8-2.5-8.3-6-18-9.6-29.4-10.5zm29.8-18.6a51.3 51.3 0 01-19.6 6 32 32 0 00-7.8 6.4l.3.4a70.6 70.6 0 016.2-1 66 66 0 0138.2 18.2c9.6-.4 18.5-2.2 26.2-6.5a68.3 68.3 0 00-43.5-23.5z" stroke-miterlimit="6.8" stroke-linecap="round"/><path stroke-linejoin="round" stroke-width="6" stroke="#1a1a1a" fill="none" d="M1773.7 645.2c-7.5.6-14 2.2-18.6 5.6l.5.4a70.9 70.9 0 016-1c9 1 17.3 3.9 25 8.4 6.1-.3 11.7-1 16.5-2.9-8.3-6-18-9.6-29.4-10.5zm-58.1-4.2a56.3 56.3 0 01-13.7 3.3 87 87 0 018.1 7.8c-7.3 4.1-15.8 6-25 6.4 5.2 4 11.2 6.9 17.2 9.6 17.5 1.9 34 1.8 47-5.5a71 71 0 00-33.6-21.6z" stroke-miterlimit="6.8" stroke-linecap="round"/><path stroke-linejoin="round" stroke-width="6" stroke="#1a1a1a" fill="none" d="M1705 647a91 91 0 015 5c-5.6 3.2-11.8 5-18.6 6l3 .9c12 .8 23.1.8 31.9-2.5a55.1 55.1 0 00-21.2-9.3zm6.7-19.7c6.7-7.6 16.3-11 27.4-12.4 16.7 2 31.1 10 43.4 23.5-12.9 7.4-29.4 7.4-47 5.6-8.8-4.2-18-8.3-23.8-16.7z" stroke-miterlimit="6.8" stroke-linecap="round"/><path stroke-linejoin="round" stroke-width="6" stroke="#1a1a1a" fill="none" d="M1711.7 627.3c4.5-3.4 11-5 18.6-5.5 11.3.8 21 4.4 29.4 10.4-8.7 3.3-20 3.4-31.8 2.5-6-1.8-12.2-3.7-16.2-7.4zm-57.7 4c-4.2 1.5-8 3.5-11.2 6.2a38.8 38.8 0 00-1.5 6.1c5.8 6.7 13.9 10.4 21.7 14 17.5 1.9 34 1.8 47-5.5a87.6 87.6 0 00-8-7.8c-8.7 1-18 .6-27.6-.4-7.3-3.4-14.7-6.8-20.4-12.5z" stroke-miterlimit="6.8" stroke-linecap="round"/><path stroke-linejoin="round" stroke-width="6" stroke="#1a1a1a" fill="none" d="M1657.7 635.4c-5.9.5-11.2 1.6-15.4 3.6a39 39 0 00-.9 3.7c3.9 2.6 9 4.2 14 5.7 11.8.8 23 .8 31.8-2.5a56.7 56.7 0 00-1.7-1.2 187 187 0 01-11.1-.8c-5.3-2.5-10.7-5-15.5-8.4h-1.2z" stroke-miterlimit="6.8" stroke-linecap="round"/><path stroke-linejoin="round" stroke-width="6" stroke="#1a1a1a" fill="none" d="M1650.5 627.2c6.7-7.6 16.3-11 27.4-12.4 16.7 1.9 31.1 10 43.4 23.5-12.9 7.3-29.4 7.4-47 5.6-8.8-4.2-18-8.3-23.8-16.7z" stroke-miterlimit="6.8" stroke-linecap="round"/><path stroke-linejoin="round" stroke-width="6" stroke="#1a1a1a" fill="none" d="M1650.5 627.2c4.5-3.4 11-5 18.6-5.6 11.3.9 21 4.5 29.4 10.5-8.8 3.3-20 3.4-31.8 2.5-6-1.8-12.3-3.7-16.2-7.4zm-379.5-6.3l52.1 8.2s-8 5.4-14.8 4.3c-11-1.8-12.6-14.5-23.5-16.3-7.5-1.3-13.8 3.8-13.8 3.8zm42.3-3l52.2 8.2s-8 5.4-14.8 4.3c-11-1.8-12.6-14.5-23.5-16.3a19.1 19.1 0 00-13.9 3.8zm42.4-3l52.1 8.2s-8 5.4-14.8 4.3c-11-1.8-12.6-14.5-23.5-16.3a19.1 19.1 0 00-13.8 3.8zm42.3-3l52.2 8.3s-8 5.3-14.9 4.2c-11-1.8-12.5-14.5-23.4-16.3-7.6-1.3-13.9 3.8-13.9 3.8zm42.4-3l52.1 8.3s-8 5.3-14.8 4.2c-11-1.8-12.6-14.5-23.5-16.3-7.5-1.3-13.8 3.8-13.8 3.8zm309 3.2l52.2 8.2s-8 5.4-14.9 4.3c-11-1.8-12.5-14.5-23.4-16.3-7.6-1.3-13.9 3.8-13.9 3.8zm42.4 0l52.1 8.2s-8 5.4-14.8 4.3c-11-1.8-12.6-14.5-23.5-16.3-7.5-1.3-13.8 3.8-13.8 3.8zm42.3 0l52.2 8.2s-8 5.4-14.9 4.3c-11-1.8-12.5-14.5-23.4-16.3-7.6-1.3-13.9 3.8-13.9 3.8zm-491.6 37.7c-16.7 2-31.1 10-43.4 23.5 11.7 6.7 26.4 7.4 42.1 6 7.2-5.3 15-9.1 23.4-11.2 2-1.7 3.8-3.7 5.3-6-1-1.1-2.2-2.2-3.3-3.1-8.1-.7-15.6-2.6-22.2-6.3l2.2-2.3a75 75 0 00-4.1-.6z" stroke-miterlimit="6.8" stroke-linecap="round"/><path stroke-linejoin="round" stroke-width="6" stroke="#1a1a1a" fill="none" d="M1370 662.2c-4.6-3.4-11.2-5-18.7-5.5-11.3.8-21 4.4-29.4 10.4 8.8 3.3 20 3.4 31.8 2.5 6-1.8 12.3-3.7 16.2-7.4z" stroke-miterlimit="6.8" stroke-linecap="round"/><path stroke-linejoin="round" stroke-width="6" stroke="#1a1a1a" fill="none" d="M1387.9 629.2c-16.8 1.9-31.1 10-43.5 23.5 13 7.3 29.5 7.4 47 5.6 5-2.3 10-4.6 14.4-7.7l-.3-.1c3.1-3.4 6.3-6.4 9.6-9.1a42 42 0 00-27.2-12.2z" stroke-miterlimit="6.8" stroke-linecap="round"/><path stroke-linejoin="round" stroke-width="6" stroke="#1a1a1a" fill="none" d="M1415.3 641.6c-4.6-3.4-11-5-18.6-5.6-11.3.9-21 4.5-29.4 10.5 8.7 3.3 20 3.3 31.8 2.5 6-1.8 12.2-3.7 16.2-7.4zm-42.4 25c-16.7 1.9-31 10-43.4 23.4 11.5 6.6 25.8 7.4 41 6.2 8.2-8.3 17-14.3 26.9-17.8a50.4 50.4 0 01-18.4-5.9 92 92 0 013.9-4c-3.2-.9-6.5-1.5-10-2z" stroke-miterlimit="6.8" stroke-linecap="round"/><path stroke-linejoin="round" stroke-width="6" stroke="#1a1a1a" fill="none" d="M1380.8 673.5c-11 1-20.3 4.5-28.4 10.4 8.1 3 18.5 3.3 29.5 2.6a66 66 0 0115.5-8.1c-6-.8-11.5-2.4-16.6-5z" stroke-miterlimit="6.8" stroke-linecap="round"/><path stroke-linejoin="round" stroke-width="6" stroke="#1a1a1a" fill="none" d="M1425.3 678.2a120 120 0 01-27.9.2 72.9 72.9 0 00-29 20.1c12.9 7.4 29.4 7.5 47 5.6 8.8-4.1 18-8.3 23.8-16.7a34.2 34.2 0 00-13.9-9.2z" stroke-miterlimit="6.8" stroke-linecap="round"/><path stroke-linejoin="round" stroke-width="6" stroke="#1a1a1a" fill="none" d="M1439.2 687.4c-4.5-3.4-11-5-18.6-5.5-11.3.8-21 4.4-29.4 10.5 8.8 3.2 20 3.3 31.8 2.4 6-1.8 12.3-3.7 16.2-7.4zm-30.4-35.3c-11 3.8-21 10.7-29.8 20.4 12.9 7.4 29.4 7.5 47 5.6 8.8-4.1 18-8.3 23.8-16.7a31.4 31.4 0 00-5.2-4.7c-13.1 1-25.5.2-35.8-4.6z" stroke-miterlimit="6.8" stroke-linecap="round"/><path stroke-linejoin="round" stroke-width="6" stroke="#1a1a1a" fill="none" d="M1449.8 661.4c-4.5-3.4-11-5-18.6-5.5-11.3.8-21 4.4-29.4 10.5 8.7 3.2 20 3.3 31.8 2.5 6-1.9 12.3-3.8 16.2-7.5zm26.6-22c-4.5-3.4-11-5-18.6-5.6-11.3.9-21 4.5-29.4 10.5 8.7 3.3 20 3.3 31.8 2.5 6-1.8 12.2-3.7 16.2-7.5z" stroke-miterlimit="6.8" stroke-linecap="round"/><path stroke-linejoin="round" stroke-width="6" stroke="#1a1a1a" fill="none" d="M1476.4 639.3A41.9 41.9 0 001449 627c-16.7 1.9-31.1 10-43.5 23.5 13 7.3 29.5 7.4 47 5.5 8.9-4 18-8.3 23.9-16.7zm-81.8-441.1c-27.8-.3-33.2 7.7-44 23.4-33-53-52 20-59.4 27.3-12.4 12.4-62.9 8.3-44.2 62.7-18.1 24.2-18.7 44.4-9.2 59 16.6 1.7 33 9 47.3 24.8 20.9 2.4 44.5-1.8 64-14 51.6 22 54.5-10.6 49.1-52.6 33.1 3.1 42.4-17.9 36.9-54.1 14.7 30.2 39.6 36.5 59.4 18.2a40 40 0 0135-10.3 8 8 0 015-1.3c2.6 0 5.6 1.4 8.5 4.2v0a170 170 0 00-8.8-16.8 299 299 0 01-33.3-37.8c-24-18.7-55.7-30-96.9-32.4l-9.4-.3z" stroke-miterlimit="6.8" stroke-linecap="round"/><path stroke-miterlimit="6.8" stroke-width="6" stroke="#1a1a1a" fill="none" d="M1334.5 57.8c-16-.4-32.4 11.2-33 36-95-43.3-100.5 139.6-16.5 94.4 4.6 15.8 33.8 24.4 53.5-2.3 15 6.7 29.4 3.6 43.6-5 5 6.4 11 12.2 17.7 17.4l4.2.2c41.2 2.4 72.9 13.7 97 32.4-20.5-28-33.9-59-27.2-85.8l-1.1-.2c8.7-24.4-41.8-45.2-54.9-37.7 0-44.3-35.8-42.7-52.7-21.7a31 31 0 00-30.6-27.7z" stroke-linecap="round" stroke-linejoin="round"/><path stroke-miterlimit="6.8" stroke-width="6" stroke="#1a1a1a" fill="none" d="M1592 32.1c-30.2-.2-54.7 13.5-53.4 48-20-4.7-35.1 5.3-39.7 29.8-63.5 46.5-1.3 128.8 51.2 173.3a145.7 145.7 0 0142.4-5.3c8.6 0 17.1.7 25.3 2-3-9.6-8-17.8-6.8-20.7 6.7-15.3 13.2-46.1 3.5-64 34.3 51.7 89.7-2.7 59.4-42.3 64.8-60.8-20.3-120.2-82-120.8z" stroke-linecap="round" stroke-linejoin="round"/><path stroke-miterlimit="6.8" stroke-width="6" stroke="#1a1a1a" fill="none" d="M1822.7.4c-31.3.5-47.5 27.6-74.4 59.3-11.7 13.9-34.5 9.7-41.6 19.7-18.2 25.9 8.8 50.6-8.6 79.2-2.1 3.4-8.3 7.2-15.8 14.2 2.7 21-12.4 40.9-31.2 43.3a41 41 0 01-4.3 6.2c-3.8 4.2-24.5 19.5-35.4 41 1.3 4 4.4 10 6.4 16.6 2 .2 3.8.6 5.7 1 2.5-3.2 5-6.3 7.5-8.8 1.3-1.7 3-3.5 5.4-5.8 5.6-5.2 15.7-7.2 27.1-12.4 4-2.1 8.3-4.9 13-8.8 12.1-10 17.7-26.3 27.8-32.7 7.3-4.6 23.2-11.5 23.2-11.5 37.7-18.6 82.8.8 81.3-67 4.8 23-1.6 62.3 36 37.5 3.7 17.6 14.1 18.3 20.3 15.6 15.4-6.6 7.7-19.2 7.7-26.7 0-3.2 10.2.3 12.8-1.9 5-4.1-7.1-14.5-2.7-19.1 4.5-4.7 15.3 7.3 21.3.6 10-11.1-15.1-18.2-4.2-41.9 27-59 .5-66.6-22.9-79.7C1854.2 5.4 1837 0 1822.7.3z" stroke-linecap="round" stroke-linejoin="round"/><path stroke-miterlimit="6.8" stroke-width="6" stroke="#1a1a1a" fill="none" d="M1822 190.7c-5.8 0-14.1 1-26.2 3.2-9.5 1.7-16.9-5.8-51.4 3.3-34.6 9.2-57 42.8-71.9 52-14.8 9-29.1 10.5-36.1 17.1-7 6.5-8 9.5-8.7 15.3 8.4 1.8 16.2 4.2 22.8 7.1 8.3-3.2 20-3 32.3-4.7 12.4-1.8 28.2-2.5 41.7-5.9 13.6-3.4 19.7-20.2 39.2-14.5-13.4 24.1 8.8 67.1 48 63.6-15 6.6-28.6 17.2-28.7 30-.1 13 16.6 28.7 15.4 32.5-1.1 3.8-6 25.5 4.7 42.3s23.8 19.6 41.4 28.2c-.3 31 27.4 99.6 82.3 58 14.4 4.4 17.4-1.3 18-8.2.7-7-7.7-6.3-6.9-12.6.8-6.3 9.9-.8 16.3-14.5s.7-27.3 4-43.3c3.5-16 14.6 2.8 24-56.4 9.2-59.1-42-132.4-84.4-126a50.6 50.6 0 00-61-54.7c-1.7-7.4-2.1-12-14.8-11.8z" stroke-linecap="round" stroke-linejoin="round"/><path stroke-linejoin="round" stroke-linecap="round" stroke-width="6" stroke="#1a1a1a" fill="none" d="M1276.8 362.3c12.1-163.9 184.3-122.4 230.8-100.9m-220.3-113.9c105.3-57.1 144 17.2 193.6 70.1m42.8-86.4c1.3 1.8-.6 4.4 1.2 8 .8 1.6 32.5 28.6 25 58.2m16.4-19c-.8 9.7-1 20 6 34.2 9.8 19.5 9.5 38.8 8.4 58.3m-17-145.6c-5.4 18.3-1.6 37.7 25.9 26.2-12.3 28 7.4 51.3 31.7 27m89.3 3.5c19 .3 29.6-13.6 32.7-40 12.5-2.4 25.7.3 35.8-21.6 8.6 7 17.8 15.6 23.4 13.2m54.5-45c20.3-15.7 24-40.6 20.2-69.7m-209.8 249.9c33.1-13 62.3-40.5 98-39.5 16 .4 15.3 6.7 24 9.7 45.5 15.8 77.9 34 105 78.8 27 44.8 27.2 91 10.4 147.1" stroke-miterlimit="6.8"/><path stroke-width="6" stroke="#1a1a1a" fill="none" d="M1706.5 283.9c-35 0-48.3 2.2-56 4.8l3.1 1.5c72 35.3 82.2 117 39.1 179.9l17.3 4.1c2.1.5 10 3.8 10.5 7.9.6 4 4 3.6 6.1-.2 39-72.2 63.7-134.8-10-194.8-2.6-2.9-6.2-3.2-10.1-3.2zm-105.8 203a1574.4 1574.4 0 01-51.3 60c-2.2 2.6-4.9 4.3-7.7 5.4-.2 41.2-54.1 82.4-74.6 96.2-35.2 24.5-35.3 41.4-35.3 47.8h.4c10.5-11.3 33-24 69-32 14.5-3.2 23.6-3.6 45-14.2 10-5 24.6-9.6 35-10.2-8.2 5.4-16.9 13.4-15.9 19.4 1.5 8.8 7.9 9.8 17.6 7.3 9.8-2.5 21.4-11.8 26.7-18.2s11.5-22.8 13.6-32.5a33 33 0 0118.5-24.2 273.2 273.2 0 01-16.8-21.7c-7.1-11-14.5-22.3-18.4-34.8-4-13-5.3-36.8-5.8-48.4z" stroke-miterlimit="6.8" stroke-linecap="round" stroke-linejoin="round"/><path stroke-width="6" stroke="#1a1a1a" fill="none" d="M1589.3 277.9c-16.4.1-32.7 2.5-46.3 7.6 1.5 1.4 2.8 3.1 4.2 5.2l73.5 119.6a27 27 0 0113.8-3.8 27 27 0 0127 27 27 27 0 01-27 27 27 27 0 01-12-2.8 444.9 444.9 0 01-21.8 29.1c.5 11.6 1.9 35.3 5.8 48.4 3.9 12.5 11.3 23.8 18.4 34.8 4.2 6.4 12 16 16.8 21.7a68.1 68.1 0 0118.7-5.2c12-2 22-3 37-1.9h.3L1669 553c-16-16.1-12.2-30.8-5-41.3l28.5-41.4c43.2-62.8 33-144.7-39-180-15.2-7.5-38-12.1-61-12.3a180.6 180.6 0 00-3.3 0z" stroke-miterlimit="6.8" stroke-linecap="round" stroke-linejoin="round"/><path stroke-width="6" stroke="#1a1a1a" fill="none" d="M1461.2 360c-2.8 4.3-5.4 9-7.8 14.2l19.1 7.1c2.2-5.2 4.6-10 7.2-14.4zm31.7 11.8c-2.7 4.3-5.2 9-7.3 14.3l18.6 7a95.5 95.5 0 016.3-14.8zm30.7 11.4a78.1 78.1 0 00-6.3 14.7l19.8 7.4a79.2 79.2 0 015.6-15zm32.2 12c-2.2 4-4.1 9-5.5 15l20.4 7.6c1.2-5.9 3-11 5-15.2zm33 12.3c-2 4-3.8 9-4.8 15.2l23.6 8.8a27 27 0 015.8-14.9zm18.7 26l-23.1 7.5a29.7 29.7 0 009.2 13.8l18.6-6a27 27 0 01-4.7-15.3v0zm-36.3 11.8l-18.5 6c2.7 5 6.4 9.5 10.6 13.4l15.6-5.1c-3.2-4-6-8.8-7.7-14.3zm-32 10.4l-18 5.9c3 4.8 6.8 9.2 10.9 13.3l16.4-5.4c-3.5-4.1-6.8-8.7-9.3-13.8zm-31.7 10.3l-17.7 5.8c3.3 4.7 7.1 9.1 11.2 13.2l16.3-5.3c-3.6-4.2-7-8.7-9.8-13.7zm-31.5 10.3l-19.8 6.5c3.1 4.8 6.7 9.3 10.5 13.4l19.6-6.4c-3.7-4.2-7.2-8.7-10.3-13.5z" stroke-miterlimit="6.8" stroke-linecap="round" stroke-linejoin="round"/><path stroke-width="6" stroke="#1a1a1a" fill="none" d="M1502.6 304.6c-8.4 4.3-19.9 11.2-31.3 21.8-22 20.2-43.9 54.2-43.9 106.6 0 45.7 27.9 76.3 54.8 94.7a199.8 199.8 0 0039.1 20.5 1978.6 1978.6 0 0111.1-10.8c-9-3.1-25.6-9.8-42.3-21.2-24.8-17-48.7-43.1-48.7-83.2 0-48.5 19.7-78.1 39.4-96.3 12.2-11.3 24.3-18 31.7-21.4-4.5-4.9-7.8-8.6-8.6-9.3l-1.3-1.4zm19.4 21.2c-6.6 3.6-15 9.1-23.3 17-18 17.2-35.8 46-35.8 90.2 0 34.9 23.3 60.4 45.5 76.7a193.7 193.7 0 0032.8 19.4l10.8-10.4c-7.5-3.3-21.3-10-35.3-20.2-20.4-15-39.8-37-39.8-65.5 0-40.5 15.7-65 31.4-80 9-8.6 17.7-13.7 23.5-16.6l-9.8-10.6zm19.1 20.6c-4.6 2.5-9.7 6-15 11-14 13.3-27.7 37-27.7 75.6 0 28.5 18.7 49.3 36.4 62.6 9.4 7 18.6 12 25.4 15.3 10-9.7 20-19.2 29.5-28.8-4-1.8-12-5.8-20-12-11.4-8.7-21.9-21-21.9-37.1 0-26.5 8.1-40.7 15.8-48.7 2.9-3 5.4-5 7.6-6.4a1489 1489 0 01-9.8-10 54 54 0 00-8 6.8c-10 10.5-19.6 28.9-19.6 58.3 0 22 14.1 38 27.3 48.2 6.3 4.8 12.4 8.4 17.2 10.9l-7.5 8.2c-4.7-2-15-6.6-27.6-16-16-11.8-30.8-29-30.8-51.3 0-35.3 11.9-54.5 23.4-65.5 5.6-5.3 11-8.7 15.1-10.7l-9.8-10.4zm42.5 44a66.3 66.3 0 00-14.3 42.6 44 44 0 0018.2 34.9c3.5 2.7 7 4.8 10 6.3l10.3-10.6c-2.4-1-7-3.1-11.7-6.8a29.2 29.2 0 01-12.8-23.8 51.5 51.5 0 0110.3-32.9l-10-9.7z" stroke-miterlimit="6.8" stroke-linecap="round" stroke-linejoin="round"/><path stroke-width="6" stroke="#1a1a1a" fill="none" d="M1526.1 289.6l-14.6 2c-13-4.7-15.9 6-7.6 14.4 3.9 3.8 66.3 74.2 103.6 106.9l5.4 4.4a27 27 0 015.2-5.3l-87.6-111.3a18 18 0 01-4.4-11.1z" stroke-miterlimit="6.8" stroke-linecap="round" stroke-linejoin="round"/><path stroke-width="6" stroke="#1a1a1a" fill="none" d="M1534.5 281.3c-7.6-.4-12.4 8.8-4 19.4l87.6 111.3a27 27 0 012.6-1.7l-73.5-119.6c-4-6.5-8.8-9.3-12.7-9.4zm97.2 297.4a91 91 0 0153.4-7.5m-62-4.5c10.8-7.1 34-14.8 52-7.1M1429 700c8.6-12 32-26.8 72.1-35.7 14.5-3.2 23.6-3.6 45-14.2 10-5 24.6-9.6 35-10.2-8.2 5.4-16.9 13.4-15.9 19.4 1.5 8.8 7.9 9.8 17.6 7.3a61.8 61.8 0 0026.7-18.2 99 99 0 0013.6-32.5c5.3-24 25.1-27.4 37.2-29.4 12-2 22-3 37-1.9 11.2 1 25 2.1 28.7 6 4.8 4.9 5.4 16.6 4 25.1 0 0-14.4-5.9-22-6.6a97.8 97.8 0 00-36.1 2.4c-14.8 4.2-30.9 16-31.3 38.3-.6 36.2-44.7 42-57.2 43.1-10.6 1-21.5 1.8-31.6 3-9.2 1.1-18-4.7-16-10.3 2.3-6.6 6.5-10.5 12.5-15.5a27.3 27.3 0 00-20 12.3c-4.6 6.5-8.9 5.7-17.4 6.3l-47 3.3c-6 .4-12.5.5-21.4 6.7-3.9 2.7-18.6 8.6-13.6 1.3zm187.6-246.2c-29.7 32.8-65.2 64.6-99 98-1.6 1.6-1 3 .9 3 4.5 0 9.8 0 15.2-.6 5.4-.6 11.2-2.3 15.6-7.3 29.5-33 57.7-66.2 73-89.2a27 27 0 01-5.7-3.9z" stroke-miterlimit="6.8" stroke-linecap="round" stroke-linejoin="round"/><circle paint-order="markers fill stroke" stroke-linecap="round" stroke-width="6" stroke="#1a1a1a" fill="none" r="27" cy="433.5" cx="1634.5" stroke-miterlimit="6.8" stroke-linejoin="round"/><path stroke-width="6" stroke="#1a1a1a" fill="none" d="M1634.5 406.5c-7.8 7-10.2 15 0 27 8.5 10 9.7 18 0 27" stroke-miterlimit="6.8" stroke-linecap="round" stroke-linejoin="round"/><path stroke-width="6" stroke="#1a1a1a" fill="none" d="M1657.9 420c-10-3.3-18-1.4-23.4 13.5-4.4 12.3-10.8 17.4-23.4 13.5" stroke-miterlimit="6.8" stroke-linecap="round" stroke-linejoin="round"/><path stroke-width="6" stroke="#1a1a1a" fill="none" d="M1657.8 447c-2.1-10.4-7.8-16.4-23.4-13.6-12.8 2.4-20.4-.6-23.3-13.5m4.6 132.1c10.3-4.5 26-12 46.3-6.4" stroke-miterlimit="6.8" stroke-linecap="round" stroke-linejoin="round"/><path fill="#1a1a1a" d="M1676 293.5l8.5 6.5a81 81 0 0125-7.4zm52 16a114 114 0 00-32.4 1.1l6.7 7.9a57.5 57.5 0 0125.8-9zm-16.7 22.4l5.1 10a63 63 0 0127.8-11 91 91 0 00-32.9 1zm10.8 24.9l3 12.6c8.8-6 18.5-7.6 28.3-8.4a72 72 0 00-31.3-4.2zm4.8 29.7l-.2 13.3c8.7-4.6 17.4-6.7 26.1-4a47 47 0 00-26-9.3zm-2 27.6l-2 9.7a31 31 0 0122.8-.4c-5.6-6.7-13-8.7-20.7-9.3zm-4.8 20l-3 8c8.3-3.3 13.6-.6 19 2a17.7 17.7 0 00-16-10zm-7 17.7l-4.9 9.4c8.3-4.2 12.5-1.6 16.8 1-1.4-6.3-5.5-9.6-12-10.4z"/><path paint-order="markers fill stroke" fill="#1a1a1a" d="M1912.8 738.5a27.7 27 0 01-18.5 6.9 27.7 27 0 01-18-6.6v-.3a27.7 27 0 01-.2.2 27.7 27 0 01-.2-.2v.4a27.7 27 0 01-18 6.5 27.7 27 0 01-18.5-6.9 27.7 27 0 01-18.4 6.9 27.7 27 0 01-18.4-6.9 27.7 27 0 01-18.5 6.9 27.7 27 0 01-18.4-6.9 27.7 27 0 01-18.4 6.9 27.7 27 0 01-18.4-6.9 27.7 27 0 01-18.5 6.9 27.7 27 0 01-18.4-6.9 27.7 27 0 01-18.4 6.9 27.7 27 0 01-18-6.5v-.4a27.7 27 0 01-.3.2 27.7 27 0 01-.2-.2v.4a27.7 27 0 01-18 6.5 27.7 27 0 01-18.4-6.9 27.7 27 0 01-18.5 7 27.7 27 0 01-18.4-7v5a20.6 21.4 0 0018.4 11.8 20.6 21.4 0 0018.5-11.8 20.6 21.4 0 0018.4 11.8 20.6 21.4 0 0018.2-11.5 20.6 21.4 0 0018.3 11.5 20.6 21.4 0 0018.4-11.9 20.6 21.4 0 0018.4 11.9 20.6 21.4 0 0018.5-11.9 20.6 21.4 0 0018.4 11.9 20.6 21.4 0 0018.4-11.9 20.6 21.4 0 0018.4 11.9 20.6 21.4 0 0018.5-11.9 20.6 21.4 0 0018.4 11.9 20.6 21.4 0 0018.4-11.9 20.6 21.4 0 0018.5 11.9 20.6 21.4 0 0018.2-11.5 20.6 21.4 0 0018.2 11.5 20.6 21.4 0 0018.5-11.9 20.6 21.4 0 0018.4 11.9 20.6 21.4 0 0018.4-11.9v-4.9a27.7 27 0 01-18.4 6.9 27.7 27 0 01-18.4-6.9z"/><path stroke="#1a1a1a" fill="none" d="M1741.8 1210v0h0s0 0 0 0z" stroke-width="6" stroke-miterlimit="6.8" stroke-linecap="round" stroke-linejoin="round"/><path fill="#1a1a1a" d="M1442.1 1263.4h-5.8v.3l.4.2.2.5-.1 1.3a689.5 689.5 0 01-1 6 17 17 0 01-.3 1.5l-.3.3-.3.1v.4h2.6v-.3l-.4-.1a.4.4 0 01-.2-.2v-.4-1.2l.5-2.8h1.8l.2.4v1h.6l.5-3.3h-.6a5 5 0 01-.3.8c-.1.2-.3.3-.4.3a1 1 0 01-.4.1h-1.3l.7-4.3h2l.4.1s.2.1.2.3c.1 0 .2.2.2.5l.1 1h.7c0-.9.2-1.7.3-2.5zm231.4-.6c-1.7 0-3 .7-4 1.9a7.7 7.7 0 00-1.6 4.5c-.2 1.9.1 3.6.9 5a7 7 0 003.5 3.3l.3-.6a5.5 5.5 0 01-2.7-2.9c-.5-1.2-.7-2.8-.6-4.6.1-1.7.6-3.1 1.3-4.2.7-1 1.7-1.6 3-1.8v-.6zm35.8 2.4l-.2.6c1 .4 1.6 1.1 2 2.3.4 1.2.6 2.6.5 4.4-.1 1.8-.4 3.3-1 4.5-.5 1.2-1.3 2-2.3 2.5l.1.6a5.3 5.3 0 003-2.7c.8-1.3 1.2-3 1.3-4.8 0-2-.2-3.5-.8-4.9a4.3 4.3 0 00-2.6-2.5zm-118.3.2v.4h.5l.1.5-.1 1.3a135811.9 135811.9 0 00-1.3 6.2 17.2 17.2 0 01-.4 1.5l-.2.4-.4.2v.4l2.9-.7v-.4h-.4l-.2-.1-.1-.4.1-1.2.6-2.8 1.4-.4h.6l.1.2v1l.7-.2.7-3.4-.6.2-.5.9-.4.4-.5.2-1.4.3.9-4.3 2.2-.5.5-.1.3.1.2.5v1l.7-.2.5-2.5-6.5 1.5zm37-8.5v.4h.5c.1 0 .2.2.2.5s0 .7-.2 1.3l-1.2 6.2a17.6 17.6 0 01-.4 1.5l-.2.4-.4.2-.1.4 5.8-1.3.7.1.7-2.5-.8-.1-.6.9-.4.6a2 2 0 01-.5.4l-.7.3-2.1.5.9-4.7 1.5-.3h.5l.2.1v.9l.5-.2h.2l.7-2.7-.7-.2-.2.2c-.1.3-.2.6-.4.7-.2.3-.4.4-.8.5l-1.4.3.9-4.2 1.7-.4.7.1.5.1a.8.8 0 01.4.3l.2.5.1 1 .8.1.6-2.2-3.3-.6-3.8.9zm74.1 9v.5l.4.1.1.6-.2 1.2a1132.4 1132.4 0 01-1.6 6 18.2 18.2 0 01-.5 1.5c0 .2 0 .3-.2.3l-.4.2v.4h2.8c1 0 1.7-.3 2.3-.6.5-.3 1-.7 1.2-1.2.3-.5.5-1 .5-1.8 0-.4 0-.8-.2-1.2l-.8-.8c.6-.4 1.2-.8 1.5-1.3.4-.5.6-1 .7-1.8 0-.5 0-.9-.2-1.2l-.8-.7-1.5-.2h-3zm-224.3 1l-.6.5v.1l-.9-.4a3 3 0 00-.8-.1c-.6 0-1.2.2-1.6.7-.4.4-.7 1-1 1.9v2.5c.1.8.4 1.4.7 1.8.3.4.7.6 1.2.7.5 0 .8-.2 1.2-.5a5 5 0 001-1.6v1c0 .3.2.6.4.8.2.2.4.3.7.3.5-.1.8-.3 1.2-.6l1.1-1.3-.5-.3-.8.9-.5.3h-.4l-.2-.5v-1.2l.4-5h-.6zm227-.3h.9l.5.4.2.5v.6l-.1 1c-.1.4-.3.6-.6.9a2 2 0 01-.8.6l-1.2.1h-.8l1-4h1zm-235.7.3c-.4 0-.8.1-1.1.4-.4.3-.7.8-1 1.4v-.2c0-.5-.2-1-.5-1.2-.2-.3-.6-.4-1-.5-.4 0-.8.2-1.1.5a5 5 0 00-1 1.6h-.1v-1c0-.3-.1-.6-.3-.8a.9.9 0 00-.7-.3c-.3 0-.6 0-.9.3l-.8 1 .4.5.5-.7.4-.2.3.1.2.5v1.1a525.3 525.3 0 01-.5 5h1.2a553.9 553.9 0 00.4-4.6l.5-1 .5-.8.6-.3c.2 0 .4.1.5.3.2.1.3.4.3.8v1.6a524.3 524.3 0 01-.3 4h1.1a520.1 520.1 0 00.4-4.6l.5-1c.1-.4.3-.6.5-.8l.6-.2c.2 0 .4 0 .5.2l.2.8v3c-.2.6-.2 1.1-.1 1.4 0 .4.2.7.4 1 .2.2.4.3.7.3.4 0 .7 0 1-.3l.8-1-.4-.5a4 4 0 01-.6.8l-.4.1-.3-.1-.1-.5v-1.1a581.6 581.6 0 00.1-3.4 2 2 0 00-.5-1.2c-.2-.3-.5-.4-1-.4zm176.8-7.3l-.1 4.4-4.6-.8v1l4.6.8-.1 4.5 1.1.2.2-4.5 4.5.9v-1l-4.5-.9.1-4.4zm-170.2 8c.4 0 .6 0 .8.3l.4.8V1270.1a5.3 5.3 0 01-1 3.1c-.2.3-.4.5-.7.5a.8.8 0 01-.7-.5c-.2-.2-.3-.6-.4-1.2v-2c0-.8.2-1.4.5-1.8.3-.4.7-.6 1.1-.6zm-20 0l-8-.1v1l8 .1v-1zm234.1.5a449.2 449.2 0 01-.5.6l-.2.1.1.2a445.8 445.8 0 002.4 3.3 527.7 527.7 0 01-3.1 3.4l-.2.2.1.2.4.5a527.9 527.9 0 003.3-3.6 456.2 456.2 0 002.5 3.5l.7-.8a455.6 455.6 0 01-2.5-3.4 516 516 0 003.2-3.7 439.1 439.1 0 01-.5-.7 515.9 515.9 0 01-3.2 3.6 444.2 444.2 0 01-2.5-3.4zm-8-.2a2 2 0 00-.7 0 3 3 0 00-.7.2 3.5 3.5 0 00-.6.4 3.3 3.3 0 00-.5.4l.4.5.7-.5c.2-.2.5-.2.7-.2.2 0 .3.1.4.3 0 0 .1.2 0 .4 0 .4 0 .9-.3 1.3a5.5 5.5 0 01-.7 1 6.7 6.7 0 01-1 1 7.2 7.2 0 01-1 .7l-.8.4h-.8v-.7a6.2 6.2 0 010-.8l.2-.8a1571 1571 0 01.8-3.5l-.1-.4a1 1 0 00-.3-.3l-.5-.2a2.3 2.3 0 00-.8 0 3.2 3.2 0 00-.7.2 4.5 4.5 0 00-.7.3 9.5 9.5 0 00-.5.4c0 .2.2.4.3.5l.4-.2a4.2 4.2 0 01.4-.2l.4-.2h.3c.1 0 .2 0 .3.2V1268.7a7 7 0 010 .4 1685.1 1685.1 0 00-1 4v1.1a1 1 0 00.3.4l.4.2h1.1a5 5 0 001.1-.4 6.5 6.5 0 001.1-.6 9.8 9.8 0 001-.9l1-1a9.8 9.8 0 00.7-1l.5-.8.2-.9c0-.3 0-.6-.2-.8-.2-.2-.4-.4-.8-.5zm-59.6-6.7c-.7.2-1.3.6-1.9 1.2a7.6 7.6 0 00-1.8 4.9c0 .7.1 1.3.4 1.6.3.4.7.5 1.3.4.4 0 .8-.3 1.2-.8.5-.4.9-1 1.3-1.7h.1l-1.2 5.4 2.2-.5.1-.4h-.6c-.2-.1-.2-.3-.2-.5l.1-1 1.9-9-.5-.1-.7.7c-.3-.2-.5-.2-.8-.2h-.9zm39.8 3.2c-.8-.1-1.6 0-2.3.3a4 4 0 00-1.6 1.7c-.4.7-.7 1.5-.7 2.4 0 .8 0 1.4.4 2 .3.4.8.7 1.4.8.4.1 1 0 1.5-.2s1-.6 1.5-1.1h.1a984.3 984.3 0 00-1.7 4.8l2.6.5v-.4c-.3 0-.5-.2-.7-.3l-.1-.5a1128.4 1128.4 0 012.9-9.3l-.6-.2-.8.4a4.3 4.3 0 00-2-.9zm-39.6-2.6l.8.1.2.8-.1 1v.4a7.9 7.9 0 01-.7 2l-.5.9a5.5 5.5 0 01-.5.6l-.5.5-.4.2c-.3 0-.6 0-.7-.3-.2-.2-.2-.6-.2-1.1a7.8 7.8 0 011.2-4.1c.4-.6.9-.9 1.4-1zm39.7 3.3c.4 0 .7.2 1 .4 0 .2.2.5.1 1 0 .3 0 .6-.2 1v.3l-.5 1a4 4 0 01-.4.7l-.6.6a3.5 3.5 0 01-.6.5l-.6.2h-.5a1 1 0 01-.8-.5c-.1-.3-.2-.7-.1-1.3 0-.7.2-1.4.5-2 .3-.7.7-1.2 1.1-1.6a2 2 0 011.6-.3zm-58.6 1.3v1l9-2v-1zm-147.6 4.4l-8-.1v1l8.1.1v-1zm246.8.6h1c.6 0 1 .1 1.3.4.3.2.4.6.3 1.2a4 4 0 01-.4 1.7c-.3.4-.6.8-1 1l-1.4.2h-1l1.2-4.5zm-99.2-1.8v1l9-2v-1zm-102.6 23.2l-1.3.3-4.4 15.6 1.3-.3 4.4-15.6zm-38.5 5h-6.6v.3c.2 0 .3 0 .5.2 0 0 .2.2.2.5l-.1 1.2a680 680 0 01-.9 6 14.5 14.5 0 01-.3 1.6l-.2.3-.4.1v.4h6.5l.5-2.7h-.8l-.4 1-.4.6-.5.3H1456.6a687.3 687.3 0 00.7-4.4h2l.2.3.1.9h.7l.4-3h-.7c-.1.4-.3.7-.5.8-.1.2-.4.3-.7.3h-1.4l.5-4.1h2.8l.3.2.2.5.2 1h.7l.3-2.4zm-19.4 0h-7.8v.4l1.5 5.2c1 3 2 6 1.6 5.2h1.1a556 556 0 003.6-10.4v-.5zm-1.3 1.2a567.5 567.5 0 01-2.6 7.8l-1.2-3.9c-1-3.1-1.8-6.3-1.1-4h5zm192-9.4a684.4 684.4 0 00-1.7 4l-2.7 8 1.2-.2 1.5-4.6a689.4 689.4 0 012.3-5.5 911.4 911.4 0 013 10.9l1.5.3a873.5 873.5 0 00-3.9-12.7zm-38.7 8.4a5 5 0 00-2.2 1.1c-.6.6-1.2 1.3-1.7 2.1-.4.9-.8 1.8-1 2.8-.2 1-.4 2-.4 2.7 0 1 .3 1.8.7 2.3.5.4 1.2.5 2.1.3l1-.3 1.1-.8.4.6.5-.3.5-2.6a17.6 17.6 0 01.5-1.6 1 1 0 01.2-.3l.4-.2v-.4l-2.8.6-.1.4h.5c.2.1.2.3.2.5l-.1 1.3-.1.4c0 .3-.2.6-.3.8a2.5 2.5 0 01-.5.6l-.6.4a3 3 0 01-.6.2c-.6.1-1 0-1.2-.3-.3-.3-.4-.8-.4-1.6 0-.7 0-1.4.2-2.1a15 15 0 01.6-2.2c.2-.8.5-1.4.8-1.9l1-1.2 1.2-.6c.5-.1.8 0 1 .2.3.2.4.6.5 1.3l.7-.2.4-2.2a7 7 0 00-2.5.2zm94 2.2c-.5 0-1 .1-1.6.4-.5.2-.9.5-1.2 1a3 3 0 00-.5 1.4c-.2 1.2.2 2 1.2 2.5l-1 .7-.6.8-.3 1.2c0 .6 0 1.1.2 1.5.2.5.5.8 1 1 .4.3 1 .4 1.6.4a4 4 0 001.7-.4 3 3 0 001.3-1c.3-.6.4-1.1.5-1.7 0-.6 0-1.2-.2-1.6-.3-.4-.6-.8-1.1-1 .5-.3 1-.7 1.2-1.1.3-.4.5-1 .5-1.5.1-.5 0-1-.2-1.4-.1-.4-.4-.7-.9-1l-1.6-.2zm13.3 0l-.7 2.6h.6l.7-1.3.6-.5.7-.2h.8a1143 1143 0 01-2 7.7 14.4 14.4 0 01-.5 1.6l-.2.2-.5.2v.3h2.9v-.4h-.4a.4.4 0 01-.2-.3v-.3-.4a8 8 0 010-.4l.2-.5a1127.7 1127.7 0 002-7.7h1.4l.3.3V1303h.7l.7-2.8h-7.1zm-195.4-5.1c-.6.1-1.2.4-1.7.6l-1 1c-.2.3-.2.7-.2 1 0 .7.6 1.1 1.6 1.2a5 5 0 00-1.8 1.3c-.4.5-.6 1-.6 1.5 0 .3.2.6.4.8.3.3.6.4 1 .5h1.5a7 7 0 003.4-1.8l-.5-.5-1.4 1a5.2 5.2 0 01-1.2.4h-1.2c-.3-.2-.4-.4-.5-.8a1.4 1.4 0 01.3-1l.5-.6a3.6 3.6 0 01.8-.4l1-.3.9-.2.1-.8-1.2.3a2 2 0 01-1.2 0 .8.8 0 01-.5-.8c0-.4 0-.8.3-1.1.3-.4.7-.6 1.3-.7.8-.2 1.4 0 1.6.8.2 0 .5 0 .8-.2l.1-1.4c-.9 0-1.7 0-2.6.2zm-17.4 3.8a4.6 4.6 0 00-3.2 2.5c-.3.6-.5 1.4-.6 2.3l-.8 7.3 1.4-.3.4-3.8h2.2c.8-.3 1.5-.7 2.1-1.3.6-.5 1-1.3 1.3-2.1a6 6 0 00.3-2.6c-.1-.6-.3-1-.5-1.4-.3-.3-.7-.5-1.1-.6h-1.5zm199.4 2c.4 0 .7 0 1 .2.2.1.3.4.4.7.2.3.2.7.1 1.2 0 .4-.1.8-.3 1.1-.1.3-.3.6-.6.8l-1 .2c-.3 0-.6 0-.8-.2-.2 0-.4-.2-.5-.4l-.2-.7v-.9c0-.6.2-1.1.6-1.5.3-.4.8-.5 1.3-.5zm-199.5-1.4h.9l.5.6.2.8v2.4c-.2.8-.5 1.4-.9 2-.3.5-.8.8-1.4 1h-1.2a.8.8 0 01-.6-.7v-.3-.3l.2-1.3.2-1.5.4-1.1c.1-.4.3-.6.5-.8l.6-.5.6-.3zm130-6v4.5l-3.9.9v1l4-.9v4.4l1-.2v-4.4l4-1v-1l-4 1v-4.5zm-141.5 8.1h-9v1h9.1l-.1-1zm-28.5.5h-1.6v2h1.7l-.1-2zm63.9-5.4l-1 .5c-.4.2-.7.5-.9.9l-.4 1.3a7 7 0 000 1.8c0 1.3.4 2.2.9 2.7.4.5 1.1.7 2 .5.9-.2 1.5-.7 1.9-1.4.4-.8.6-1.8.4-3.1 0-1.3-.4-2.2-.8-2.7-.5-.5-1.2-.7-2.1-.5zm132-1.4a3 3 0 00-2.2.3c-.6.4-1.1 1-1.5 1.7-.3.7-.5 1.5-.5 2.4 0 .8.1 1.4.4 1.9.3.5.7.8 1.3.9.5 0 1 0 1.4-.2.4-.2 1-.6 1.4-1.2h.1l-.8 2.7c-.3.6-.7 1-1 1.2-.4.2-1 .3-1.6.1-.5 0-1-.3-1.2-.5-.3-.2-.4-.5-.4-1v-.3l.2-.3a2 2 0 01.2-.3 722 722 0 00-.5-.6l-.9.6a1 1 0 00-.3.7c0 1.2 1 2 3 2.3.5.2 1 .2 1.5.1.4 0 .8-.2 1.1-.4a2.6 2.6 0 00.8-.8 5.4 5.4 0 00.5-1 26.5 26.5 0 001-4.1l1-3.4-.5-.3-.8.4a4 4 0 00-.8-.6 4.1 4.1 0 00-1-.3zm49.8 8.1l-.8.1a2.1 2.1 0 00-.5.3 3.3 3.3 0 00-.6.5l-.6.7.4.4c.3-.4.6-.6.8-.7.2-.2.5-.2.8-.2h.2l-.6 2.2c-.6 2-1.2 3.3-1.7 3.8l-.1.4h1.5a16.8 16.8 0 00.6-2l1.2-4.4h2a20.8 20.8 0 00-.9 2.9l-.2.8a9 9 0 00-.3 1.5c0 .4 0 .7.2 1 .1.2.4.3.7.3l1-.3 1-1-.4-.4c-.4.5-.7.8-1 .8l-.3-.1v-.5c0-.2 0-.6.2-1.1a1137.4 1137.4 0 001-4h1.7l.3-1h-5.6zm-181.8-6.2c.3 0 .6 0 .8.2.3.1.5.5.6 1l.4 2c0 1 0 2-.2 2.5-.1.6-.5 1-1 1-.5.1-.9 0-1.2-.6-.3-.5-.5-1.3-.6-2.5v-1.4l.1-1 .4-.8.7-.4zm132-1.2c.4 0 .7.2.9.4.2.2.2.5.2 1a6.1 6.1 0 01-.7 2.5l-.7 1a3 3 0 01-.8.7c-.3.1-.6.1-.8 0a1 1 0 01-.8-.5l-.2-1.2c0-.7.2-1.4.5-2 .2-.7.6-1.3 1-1.6.4-.3 1-.4 1.4-.3zm24 5l-.1 1 9.6 2 .1-1zm-191 3.8h-9v1h9.1l-.1-1zm210.1 1c.4 0 .7 0 1 .2.2.2.4.5.5.9v1.2c0 .5 0 1-.3 1.3-.1.3-.4.6-.6.7a2 2 0 01-1 .3c-.4 0-.7 0-.9-.2-.2 0-.4-.3-.5-.5a2 2 0 01-.3-.7 4 4 0 01.2-1.8l.4-.8a1.8 1.8 0 011.5-.6zm-19.4-1.5v1l9.5 2 .1-1zm-62.8-.7c-.2 0-.3 0-.5.2a2.9 2.9 0 00-.4.3 4.9 4.9 0 00-.5.5c0 .2-.2.3-.3.5l.3.3a50.4 50.4 0 00.9-.9h.1v.4a27.3 27.3 0 01-.3 2.8 6.8 6.8 0 000 1.2 1 1 0 000 .3.4.4 0 00.3.2h.3l.7-.3a4.7 4.7 0 00.7-.6 6.7 6.7 0 00.7-.7 11 11 0 001-1.8l.5-.9a6.4 6.4 0 00.2-.7l.1-.7c0-.3 0-.5-.2-.7-.1-.1-.3-.2-.6-.1l-.4.2-.4.3a3.7 3.7 0 00-.3.4 3.6 3.6 0 00-.3.5l.3.3a4.4 4.4 0 01.4-.6l.3-.2h.3v1.4a5.6 5.6 0 01-.5.8 6.7 6.7 0 01-.5.9l-.6.7a4.6 4.6 0 01-.5.5l-.4.3-.1-.2v-.3-.5-.6l.4-2v-.3a2.4 2.4 0 000-.4l-.1-.3a.5.5 0 00-.2-.2h-.4zm52-.6a1.5 1.5 0 00-.6 0 2 2 0 00-.5.2 3 3 0 00-.5.2 7.4 7.4 0 00-.4.3l.3.5.2-.2a2.6 2.6 0 01.6-.2h.4v.3a22.3 22.3 0 01-.5 2.8 5.9 5.9 0 00-.1 1.1v.4a.7.7 0 00.3.2c0 .1.1.2.3.2h.7a3.2 3.2 0 00.8-.2 4 4 0 00.7-.5 6.4 6.4 0 00.7-.6 6.8 6.8 0 00.6-.7 6.8 6.8 0 00.5-.7 4.3 4.3 0 00.3-.6l.1-.6-.1-.8c-.1-.2-.3-.4-.6-.4a1.1 1.1 0 00-.5 0l-.4.1a2.2 2.2 0 00-.4.3 2.2 2.2 0 00-.4.4l.3.3a2.6 2.6 0 01.5-.3l.4-.1s.2 0 .2.2l.1.4a2.5 2.5 0 01-.2.8 3.7 3.7 0 01-.5.8 4 4 0 01-.6.6l-.6.5a2.9 2.9 0 01-.6.2 1 1 0 01-.5 0v-.4-.5a10 10 0 01.1-.5 1416.8 1416.8 0 01.5-2.3v-.3a1.2 1.2 0 000-.4.9.9 0 00-.3-.3.8.8 0 00-.4-.2zm57.6 5.2l-.5.1a2 2 0 00-.4.3 3.7 3.7 0 00-.5.3 9.7 9.7 0 00-.3.4l.2.4a22.6 22.6 0 00.7-.6h.4v.3a28.4 28.4 0 01-.5 2.9 7.3 7.3 0 000 .7v.8l.2.2.3.1c.3 0 .5 0 .7-.2a3.4 3.4 0 00.7-.4c.3-.1.5-.3.7-.6a8 8 0 00.6-.7 9 9 0 00.9-1.6 5.6 5.6 0 00.3-.8v-.6-.7l-.6-.3a1 1 0 00-.4 0l-.4.3a2.7 2.7 0 00-.4.4 2.8 2.8 0 00-.3.4l.3.3a3.3 3.3 0 01.4-.4l.3-.2.3.1v.4a3.1 3.1 0 01-.1 1 4.8 4.8 0 01-.4.8 5.3 5.3 0 01-.5.7l-.6.6a3.3 3.3 0 01-.6.4 1 1 0 01-.4.2v-.2-.3a6 6 0 01.1-1 1331.5 1331.5 0 00.4-2.4v-.4-.4l-.3-.2-.3-.1zm-116.6-3a1.8 1.8 0 00-.5.1 2 2 0 00-.4.3l-.4.4a14.9 14.9 0 00-.5.7l.4.2a17.2 17.2 0 01.5-.6 1.4 1.4 0 01.2-.2.6.6 0 01.2 0c.2 0 .3 0 .3.3v.4a19.1 19.1 0 01-.2.7l-.1.7-.2.7a16.7 16.7 0 00-.2 1c0 .4.1.7.3.9.2.1.5.2.9.1.3 0 .7-.3 1-.6l1-1.3v.5c0 .3 0 .5.2.6.1.2.3.2.6.2l.4-.2a2 2 0 00.4-.3l.4-.4.5-.6-.4-.3c0 .2-.2.3-.3.4a3.3 3.3 0 01-.2.3l-.2.1a.6.6 0 01-.2.1h-.2v-.3-.4-.5l.8-3.8-1 .2-.6 3a4.2 4.2 0 01-.3.7 5.4 5.4 0 01-1 1.5l-.5.3-.4-.1-.1-.5v-.8a28.6 28.6 0 01.5-2.2v-.5l-.1-.7c-.2-.1-.4-.2-.6-.1zm51.4-3.7a1.7 1.7 0 00-.5 0h-.4l-.5.3-.5.4.3.4a10 10 0 01.6-.4.9.9 0 01.2 0h.2c.3 0 .4.1.4.4l-.1.4-.2.6a68.2 68.2 0 01-.2.6l-.1.7a14.2 14.2 0 00-.3 1c0 .4.1.7.3 1 .2.2.5.4.9.4.3.1.7 0 1-.1a4 4 0 001.2-.9.9.9 0 000 .3v.2l.1.8.7.4h.4l.4-.1a2.9 2.9 0 00.5-.3l.5-.3a378.2 378.2 0 00-.4-.5 6.9 6.9 0 01-.5.4l-.2.1h-.3l-.2-.1v-.4a3.8 3.8 0 01.1-.8l1-3.5-1-.2a1150.6 1150.6 0 00-1.2 3.3c-.1.3-.3.5-.5.6a2.3 2.3 0 01-.6.4 1 1 0 01-.5.1.6.6 0 01-.5-.3v-.5-.8a20.2 20.2 0 01.5-1.3 4.9 4.9 0 00.2-1.2c0-.3 0-.5-.2-.7a1 1 0 00-.6-.4zm58.5 6.8a1.4 1.4 0 00-.4 0l-.4.2-.4.3-.6.6.4.3a11 11 0 01.5-.5l.2-.1a.4.4 0 01.2 0c.2 0 .3 0 .3.3l-.1.5a21.4 21.4 0 01-.5 2 21 21 0 00-.2.6v.4c0 .4 0 .7.2 1 .1.2.4.3.7.3.4 0 .7-.2 1-.4.4-.3.7-.7 1-1.2h.1a1.1 1.1 0 000 .3v.3l.1.7.6.2h.4l.4-.2.4-.4.5-.5c-.2 0-.3-.2-.4-.3a8.4 8.4 0 01-.3.3l-.2.2a.9.9 0 01-.2.1.5.5 0 01-.2 0h-.2v-.3a4.6 4.6 0 010-1l1-3.7h-1a1132.2 1132.2 0 01-1 3.7 4.4 4.4 0 01-.4.7 3 3 0 01-.6.5 1 1 0 01-.5.2c-.2 0-.3 0-.4-.2v-.5-.8a28.4 28.4 0 01.6-2l.1-.6c0-.3 0-.6-.2-.8a.6.6 0 00-.5-.2zm-216.8 21.2l-1.4.7c-.5.3-.8.8-1 1.3a6 6 0 00-.6 1.9v2.5c.2 1.8.7 3 1.3 3.8.7.7 1.6 1 2.7.7 1.2-.3 2-1 2.5-2.1.5-1 .7-2.5.5-4.4-.2-1.7-.6-3-1.3-3.7-.6-.7-1.6-1-2.7-.7zm-30.5 2.3h-4v.5l.6.1.2.6v1.2a10057.2 10057.2 0 00-1.5 7.6l-.2.3a1 1 0 01-.5.1v.4h3.6a7 7 0 002.8-.5c.7-.4 1.1-.8 1.4-1.3.3-.5.5-1 .4-1.8a2 2 0 00-.5-1.2c-.3-.3-.7-.6-1.2-.8.8-.3 1.5-.7 1.8-1.2.4-.6.6-1.2.6-1.8 0-.5-.2-1-.5-1.2-.2-.3-.6-.6-1-.7-.6-.2-1.2-.3-2-.3zm30.5-1.6c.4 0 .8 0 1 .2.4.3.7.8 1 1.4l.5 2.9a10 10 0 01-.1 3.5c-.3.8-.7 1.3-1.3 1.5-.7.1-1.2-.1-1.6-.8a17 17 0 01-1-5.5l.1-1.6.5-1c.2-.3.5-.5.9-.6zm-48.5 1.9h-8.5v.6l3.4 10.3h1.2l4-10.4zm17.7.4l1 .1.7.3.4.5.2.6-.1 1c-.1.4-.3.7-.6 1l-1 .5a6 6 0 01-1.4.1h-1.2l.7-4h1.3zm-19 .8l-3 8-2.5-8h5.5zm230.5-1.4a732.4 732.4 0 00-6.4 13.2l1 .3a737.3 737.3 0 016.6-13.3zm-10.5-2.4l-1.9-.3-.1.4c.3 0 .5.2.6.3.2 0 .2.3.2.5 0 .1 0 .5-.2.9l-.1.5-1.5.3.2.7 1-.2a1083.6 1083.6 0 00-2 7.3l1.2.3a1156 1156 0 011.3-4.3l.7-.9.8-.6c.3-.1.5-.2.7-.1.3 0 .4.2.5.3l.2.8-.1.6-.3 1a983.8 983.8 0 00-.8 2.7c0 .4 0 .7.2 1 .2.3.4.5.7.5h.7l.6-.1 1-.7a634.4 634.4 0 00-.4-.6l-.8.6c-.1 0-.3.1-.4 0a.4.4 0 01-.3-.1v-.5l.2-1.2a996.9 996.9 0 011-3.2c0-.5-.1-1-.3-1.3-.3-.3-.6-.5-1-.6a2 2 0 00-1.4.2c-.4.2-.9.5-1.4 1l.7-2.4 2.4-.5-.2-.7-2 .4.7-1.9h-.4zm-69.5 2.6a89129.8 89129.8 0 00-3.8 11v.5l8-1.8v-.5a93812.1 93812.1 0 00-3.2-9.5zm26-6a89125.7 89125.7 0 00-3.8 11v.5l8-1.8v-.5a93714 93714 0 00-3.1-9.4zm59.8 7.5c-.4-.1-.9-.2-1.4-.1-.5 0-1 0-1.7.2l-.2 1.5 1 .2c.3-1 1-1.4 2-1.2l.8.5.5.8a3 3 0 01-.1 1.8 3.4 3.4 0 01-.4.7 24.2 24.2 0 01-2 2l-1.8 1.7-1 1.5v.4l5.9 1.3.4-2.2-.6-.1-.3.5-.2.2h-1l-2.7-.6c.5-.7 1.3-1.5 2.3-2.3.6-.5 1-.9 1.3-1a11 11 0 00.7-.7l.5-.7a2.8 2.8 0 00.3-.6l.2-.7c.1-.8 0-1.5-.5-2-.4-.6-1-1-2-1.1zm-34.8-7v1.1a1176.7 1176.7 0 017.6 4.9l-7.8 1.3v1.2a8035.4 8035.4 0 019-1.7v-1a1138.4 1138.4 0 00-8.8-5.8zm-161.6 8.9l-10 .1.2 1h9.9l-.1-1.1zm110.8-1.8l2.3 7.2-5 1.2 2.7-8.4zm26-6l2.4 7.2-5 1.2c.8-2.8 1.7-5.6 2.7-8.3zm-16.2 4l-.7 1 3.3 2.6-3.3 4.3.6.6 3.4-4.3 3.2 2.8.7-1-3.2-2.7 3.2-4.3-.7-.5-3.2 4.2-3.3-2.7zm-152.2 4.7h-1.8l.1 2h1.8zm10 1c.7 0 1.3 0 1.6.3.4.3.6.7.7 1.2a3 3 0 01-.4 1.7c-.2.5-.6.8-1 1-.4.2-1 .3-1.8.3h-1.2l.7-4.6h1.4zm165.1-9.7c-.3 0-.6.2-.9.5l-1.1 1.3.4.3.7-.8c.2-.2.3-.3.5-.3h.3v1.6c-.7 2.9-1.3 5.7-1.8 8.6l2.2-.5v-.4h-.6l-.1-.5v-1l.4-1.7c.4.2 1 .3 1.6.1.7-.2 1.4-.5 2-1.2a7.7 7.7 0 001.8-4.9c0-.7-.2-1.3-.5-1.6-.3-.4-.7-.5-1.2-.4-1 .2-1.8 1.1-2.7 2.7v-1c0-.3 0-.5-.2-.7-.2-.2-.4-.2-.7-.2zm3.2.2c.3-.1.5 0 .6.2.2.2.2.6.2 1.1a7.5 7.5 0 01-.3 2.3l-.4 1.1a4.5 4.5 0 01-.5.8 3 3 0 01-.6.6c-.2.2-.4.3-.7.3-.4.1-.7 0-.8 0-.2-.2-.3-.5-.3-.9v-.4l.1-.7.1-.3a7.7 7.7 0 011-2.7l.8-1c.3-.2.5-.4.8-.4zm-146.4 10.8l-10 .2.2 1 10-.1a907.6 907.6 0 01-.2-1zm151-7c-.1 0-.3-.1-.4 0a.8.8 0 00-.4 0l-.3.3-.4.5.4.4a3.3 3.3 0 01.2-.3l.2-.2h.5l.1.2.1.3.2.4v.6l.2.9a26.7 26.7 0 01-1 1 4.4 4.4 0 01-.4.4h-.2c-.2 0-.2-.1-.2-.3h-.5l-.2 1.2h1.1a1.1 1.1 0 00.3-.2l.3-.3.4-.5.6-.7a7.9 7.9 0 00.4 1.7l.1.3.3.3.3.2h.4l.4-.1a1.5 1.5 0 00.3-.3l.4-.5-.3-.4a3.8 3.8 0 01-.3.4 1 1 0 01-.2.1l-.1.1h-.2l-.2-.1-.2-.4-.2-.8a46.8 46.8 0 01-.2-1.2 24.1 24.1 0 011.4-1.4H1636.7l.1.3h.5l.2-1a1.3 1.3 0 00-.4-.2 1.9 1.9 0 00-.4 0 .9.9 0 00-.5.2l-.3.3c-.2 0-.3.2-.5.4l-.5.7a41.3 41.3 0 00-.2-1l-.2-.6-.3-.5a1 1 0 00-.5-.2zm10 4.6v1l8.8 2v-1zm-128.3 19.6a1 1 0 00-.6.5l-.2.7.3.6h.6c.2 0 .4-.1.6-.4l.2-.7-.3-.6h-.6zm140.3 4.1h-1l-1 .1-.1 1.1.6.2c.2-.8.7-1 1.3-.9l.6.3.3.6a2.3 2.3 0 01-.2 1.8 15.3 15.3 0 01-1.3 1.5l-1.2 1.2-.6 1v.3l4 1 .2-1.6h-.4l-.2.3-.1.1-.3.1h-.4l-1.8-.5c.3-.5.8-1 1.5-1.6l.8-.8a7 7 0 00.4-.5l.4-.4a2 2 0 00.2-.5v-.5c0-.6 0-1-.3-1.5-.3-.3-.8-.6-1.4-.8zm-139.8-1l-3.7 1v.5h.5c.1 0 .2.2.2.5v1.2a23198 23198 0 01-1.2 7.4 3.4 3.4 0 01-.1.5l-.2.4-.4.2v.4l3.1-.9c1.2-.3 2-.7 2.6-1.2.6-.4 1-1 1.3-1.5.2-.6.4-1.2.3-1.9 0-.4-.1-.8-.4-1-.3-.4-.6-.5-1-.6v-.1c.7-.5 1.3-1 1.6-1.6.4-.6.6-1.3.5-2 0-.4-.1-.8-.3-1-.3-.3-.6-.4-1-.5-.5 0-1.1 0-1.8.3zm-.3.8a4 4 0 01.9-.1h.6l.4.5.2.6c0 .4 0 .7-.2 1a3.2 3.2 0 01-1.4 1.8 6 6 0 01-1.3.5l-1 .3.6-4.2a32.3 32.3 0 011.2-.4zm-39.7 7l-8 .2v.4c.3 0 .5 0 .7.2.1 0 .2.2.2.5v1.2a8275.9 8275.9 0 00-1.6 7.6l-.2.3-.5.2v.4l7.7-.2.6-2.8h-.9l-.5 1.1-.5.6-.6.3-.8.1-2.6.1.8-4.5h2.4c.1 0 .2 0 .3.2l.1.9h.8l.5-3h-.8l-.6.8c-.2.2-.5.3-.9.3h-1.7l.7-4 2.8-.1h.6a.7.7 0 01.3.2l.3.4.2 1h.8l.4-2.4zm-31.4.7l-9.3.2v.5l3.7 10.3h1.2l2.3-5.2 2.1-5.3v-.5zm165.5-5.9l-1.2.5c-.3.3-.6.5-.7.8a1.7 1.7 0 000 1.8c.2.3.4.7.8 1-1.1.8-2 1.6-2.5 2.6-.6 1-.9 2-.9 3 0 .5.1 1 .3 1.3.2.3.5.5.9.6.4.2.9.2 1.5 0a4 4 0 001.8-1c.6-.4 1-1 1.2-1.6a5 5 0 00.3-3.2c0-.4-.2-.7-.4-1a8 8 0 00-1-1.1 15.2 15.2 0 01-1.1-1.4 1 1 0 01-.1-.4c0-.3 0-.6.3-.8.2-.2.4-.4.7-.4.5-.1.8 0 1.1.1.3.2.6.6.8 1.1l.6-.1.3-1.3c-.6-.3-1-.5-1.4-.5a3.4 3.4 0 00-1.3 0zm38.3-.9l-1.7-.4v.4l.5.3.2.5a6.1 6.1 0 01-.3 1.5l-1.3.2.2.7 1-.2a1024.4 1024.4 0 00-1.8 7.3l1.1.3a1102.6 1102.6 0 011.1-4.3l.6-.8.8-.7h.6c.2 0 .4.1.5.3l.1.8v.6l-.3 1a881.5 881.5 0 00-.4 1.2l-.2 1.5c0 .3 0 .7.2 1 .1.2.4.4.7.5h.5c.2 0 .4 0 .6-.2l.9-.7a613.7 613.7 0 00-.4-.5c-.3.3-.5.5-.7.5-.1.1-.3.2-.4.1a.4.4 0 01-.2-.2l-.1-.5a866 866 0 011-4.4c0-.4 0-.8-.3-1.2-.2-.3-.5-.5-1-.6-.3-.1-.7 0-1.1.1-.4.2-.8.6-1.3 1.1l.6-2.5 2.2-.4-.3-.7-1.7.4.5-1.9-.4-.1zm-29.4-.9l-2 10.7c-.6.1-1 0-1.3-.2-.3-.2-.4-.6-.4-1.1v-.7l.2-.8.2-1.2c.2-.6.2-1 .2-1.3 0-.4 0-.7-.3-1-.2-.1-.4-.2-.8 0a2 2 0 00-.8.3l-1 1 .4.3a4 4 0 01.5-.4c0-.2.2-.2.4-.3h.3v1.6l-.3 1c-.2.8-.2 1.3-.2 1.7 0 1.5.9 2 2.7 1.8l-.7 3.4 1.1-.3.7-3.3c1-.3 1.8-.7 2.5-1.4s1.3-1.6 1.6-2.6a9.2 9.2 0 00.5-4.5l-1.3.3v.4l.2 1.7c0 .9-.1 1.7-.4 2.4-.3.8-.7 1.4-1.2 1.9s-1 .9-1.8 1l2.1-10.6-1.1.2zm-175.9 9l-3.2 8-2.7-7.9h6zm16 .2l-3.7 3.7-4-3.5-.9.8 4 3.4-3.8 3.7.8.7 4-3.6 4 3.5.9-.8-4.1-3.5 3.7-3.7a690.4 690.4 0 01-.9-.7zm34.6.2l-4.5 1.3-5.5.1.1 1h5.6l4.4-1.3-.1-1zm21.3-4.4c.7-.2 1.2-.2 1.5 0 .3.2.5.5.5 1 0 .7 0 1.3-.3 1.8-.2.5-.5 1-.9 1.2l-1.6.8-1.1.2.6-4.6 1.3-.4zm-5.8 1.7l-9 2.6v1l9-2.5zm100.2-.3c.4.3.6.7.8 1.2.2.4.2 1 .2 1.5 0 .6 0 1.2-.2 1.7s-.4 1-.8 1.3a2 2 0 01-1 .7c-1 .2-1.5-.3-1.5-1.5 0-1 .2-2 .7-2.8.4-1 1-1.6 1.8-2.1zm-115.4 6.3l-4.4 1.2-5.5.1v1h5.6l4.4-1.3-.1-1zm180.1 4.5l-.9-.1c-.3 0-.7 0-1.1.2l-.1 1 .6.2c.3-.7.7-1 1.3-.8l.6.3.3.6v.8a2.4 2.4 0 01-.1.5c0 .2-.2.3-.3.5 0 .2-.2.4-.4.6l-1 .9c-.4.4-.8.8-1 1.2l-.7 1v.3l3.8 1 .3-1.6h-.4l-.2.3-.2.1s-.1.1-.2 0h-.4l-1.7-.4c.3-.5.8-1 1.5-1.7l.8-.7a8 8 0 00.5-.5 3.1 3.1 0 00.3-.5 2.1 2.1 0 00.2-.4l.2-.5c0-.6 0-1.1-.4-1.5-.2-.4-.7-.6-1.2-.8zm-76.4-.5l-1.8.4-.1.5h.7l.1.4v1l-.2.5-1.4 1 .3.5 1-.7-1.7 8 1.3-.2.6-3.5a6 6 0 011-2.4l.8-1 .7-.4.5.1.2.7v.6l-.3 1.1-.3 1.4c-.2.7-.2 1.2-.2 1.6 0 .3 0 .6.3.8.1.2.4.3.7.2a2.2 2.2 0 001.2-.8l1-1-.5-.4-.7.9a1 1 0 01-.4.3l-.3-.1-.1-.4c0-.3 0-.7.2-1.3l.4-2 .3-1.5c0-.5-.2-.9-.4-1-.3-.3-.6-.3-1-.2-.5 0-1 .3-1.3.7-.4.4-.9 1-1.3 1.7h-.1l.6-2.7 2.3-1.5-.3-.6-1.8 1.3.4-2.1h-.4zm86.6 4a1180.7 1180.7 0 01-3.4 10.4c-.6 0-1-.3-1.3-.5-.3-.3-.4-.7-.4-1.3l.2-.7a9 9 0 01.2-.8 1068 1068 0 00.8-2.4c0-.4 0-.7-.2-1-.2-.2-.5-.3-1-.3-.3 0-.6 0-.9.2l-1.1.7.4.5a3.6 3.6 0 01.5-.4l.5-.2.3.2s.1.2 0 .4c0 .3 0 .6-.2 1.1a1116.3 1116.3 0 01-.9 2.6c-.1 1.5.8 2.3 2.9 2.5l-1.1 3.3h1.3l1.1-3.2a5.8 5.8 0 005-3 7.9 7.9 0 001-4.5h-1.5l-.1.3c.1.6.2 1.3.1 1.9 0 .8-.3 1.6-.7 2.3a4.2 4.2 0 01-3.6 2.3 1169.7 1169.7 0 003.4-10.3zm42.2.5a1128.9 1128.9 0 01-2.5 10.4c-.6 0-1-.3-1.4-.5-.3-.3-.4-.7-.4-1.3v-.7a8.7 8.7 0 01.2-.8 952.3 952.3 0 00.6-2.4c0-.5-.1-.8-.3-1-.2-.3-.6-.4-1-.4a2 2 0 00-.9.2c-.3.2-.7.4-1 .8l.4.4a3.2 3.2 0 01.5-.4l.4-.1.4.1v.5l-.1 1.1-.3 1-.3 1.6c0 1.5 1 2.3 3 2.6l-.8 3.2h1.4l.8-3.2c1 0 2-.3 2.8-.8.8-.5 1.5-1.3 2-2.2a7.5 7.5 0 00.5-4.6h-1.5l-.1.4a5.8 5.8 0 01-.2 4.2c-.3.7-.8 1.2-1.3 1.6-.6.4-1.3.6-2 .7a1125 1125 0 002.4-10.4zm-63-3.7v.5a850.5 850.5 0 012 11l.9.2a688 688 0 014.3-9.3v-.5zm46.5 3.8v.4l.5.2.2.6.1.9.2 8.7h1.1a626.5 626.5 0 005.6-8.6l.8-1.2.4-.4a1 1 0 01.5-.1v-.4h-3.3v.3c.5.1.7.4.7.8l-.1.7-.5 1a632.5 632.5 0 01-3.8 6v-.6-5.7a147 147 0 010-1.5l.3-.5.6-.2a87 87 0 00.1-.4h-3.4zm-118.2-2.7l-.3 1.6 1.3-.3.3-1.5zm106.8 3.7l-.3 4.5h-4.4l-.1 1h4.5l-.3 4.5h1.2l.2-4.5h4.5l.1-1h-4.5l.3-4.5zm-33.7-3.2l4.6 1.2a706.7 706.7 0 00-3.2 7.1 865 865 0 00-1.4-8.3zm-72.9 2.4l-1.8.5v.5h.6l.1.4-.1 1.2-.6 2.6-.2 1.6c0 .3.1.6.3.8.2.2.5.3.8.2.3 0 .7-.2 1-.5a9 9 0 001.1-1.3l-.4-.4-.7.9a1 1 0 01-.5.3h-.3v-.5l.1-1.2 1-5.1h-.4zm36.8-7.6v1l3.4-.8 5 1.4v-1l-5-1.4zm-23.9 7.1v1l18.7-4.3v-1zm36.8-3.7v1l18.7 5v-1zm-13-.2v1l3.5-.8 4.9 1.4v-1l-5-1.4zm-16.3 6.7l-1.2.5-.8.8-.2 1c0 .2 0 .5.2.8l.9 1c-1.1.8-2 1.6-2.6 2.6-.5 1-.8 2-.8 3 0 .5 0 .9.3 1.2.1.4.4.6.8.7.4.1 1 .1 1.6 0a4 4 0 001.8-1c.5-.4 1-1 1.2-1.7a5 5 0 00.3-3.1l-.4-1a8 8 0 00-1-1.2 15.2 15.2 0 01-1.2-1.4 1 1 0 010-.4c0-.3 0-.5.2-.7.2-.3.5-.4.8-.5.4 0 .8 0 1.1.2.3.2.5.6.7 1h.7l.2-1.4-1.4-.5a3.4 3.4 0 00-1.2 0zm32.9-.6h-1.2c-.5 0-1 0-1.5.2v1.4l.7.2c.3-1 .9-1.3 1.7-1.1.3 0 .6.2.8.5l.4.8a3.4 3.4 0 01-.2 2.4l-.6.9-1.1 1.2-1.4 1.6-.7 1.4v.4l5 1.5.3-2.3-.6-.1-.1.5-.2.2h-.3a2 2 0 01-.5 0l-2.4-.7c.4-.6 1-1.4 1.8-2.2l1-1a9.1 9.1 0 00.7-.7l.4-.6.2-.6v-.7c.1-.8 0-1.5-.4-2s-1-1-1.8-1.2zm-27.3 1.1a24.3 24.3 0 01-.6 1.7l-.3.4-.4.3-.6.2-.1.5 1.2-.2-.9 4.1v1.2c0 1 .4 1.5 1.4 1.2.5 0 .9-.3 1.3-.6l1.2-1.5-.5-.4-.8 1.1-.7.4c-.5.1-.7-.1-.7-.8v-.6l.3-1.3.6-3.1 2.2-.5.2-.8-2.2.5.3-2-1 .2zm32.7 3.6l-.9.1-1 .8.4.5c.2-.3.4-.4.6-.5.1-.1.3-.2.4-.1.1 0 .2 0 .3.2v.5c0 .2 0 .6-.2 1l-1.1 4.7 1 .3a1075.4 1075.4 0 011.2-4.3l.6-.9.7-.6h.6c.2 0 .3.1.4.3l.2.9-.1.5-.3 1a1025.1 1025.1 0 00-.9 3.8l1 .3a1136 1136 0 011.3-4.4c.1-.3.3-.6.6-.8l.6-.6h.6c.2 0 .4.1.5.3 0 .2.1.4 0 .8v.5a15.9 15.9 0 01-.6 2.3 7 7 0 00-.3 1.5l.1 1 .7.5h.9l1-.9a765.6 765.6 0 00-.3-.5l-.7.6h-.4a.4.4 0 01-.2-.2v-.5a1022.3 1022.3 0 011-4.4c0-.4 0-.9-.2-1.2-.2-.3-.5-.5-1-.7-.3 0-.7 0-1 .2a4 4 0 00-1.2 1.1v-.2c0-.6 0-1-.3-1.3-.2-.4-.5-.6-.9-.7-.4-.1-.8 0-1.2.2-.4.2-.8.6-1.2 1.2l.1-.9c0-.3 0-.6-.2-.9a1 1 0 00-.6-.5zm-39 .4l.8 1.2.2 1.6c0 .6 0 1.1-.3 1.7-.1.5-.4 1-.7 1.3a2 2 0 01-1 .6c-1 .3-1.5-.2-1.5-1.4 0-1 .2-2 .6-2.9.5-.9 1-1.6 1.8-2zm-52.7 2.4l-.5.1a1 1 0 00-.2.6l.2.7c.2.2.3.4.5.4s.4 0 .5-.2l.2-.6c0-.2 0-.5-.2-.7-.1-.2-.3-.3-.5-.3zm3.9 3.4l-.2.5c1 .6 1.6 1.6 2.1 2.8.4 1.3.7 2.8.7 4.5 0 1.9-.2 3.3-.7 4.4-.4 1.1-1.1 1.7-2 2v.6c1.3-.2 2.2-.8 2.8-2a12.8 12.8 0 000-9.6 6.3 6.3 0 00-2.7-3.2zm-1.1.4a915.6 915.6 0 00-5.6-1.2v.4c.2 0 .3.2.4.3l.1.5v1.2l-1 5.8a17.2 17.2 0 01-.4 1.5l-.2.2-.4.1v.4l5.3 1 .5-2.5-.6-.2-.4 1a2 2 0 01-.4.5l-.3.2h-.6l-1.8-.4.8-4.3a3893 3893 0 001.6.4l.2.3v.9h.5l.6-2.8-.6-.1-.4.7c-.2.2-.4.2-.7.2l-1.1-.3.7-4 2 .5h.3l.2.3.2.5v1l.6.2.5-2.3zm-40.4-2.2c-1.3.8-2.3 2-3 3.5a11.6 11.6 0 00.5 9.5c.7 1.1 1.7 1.6 3 1.6l.1-.6c.4-.1.8-.3 1-.6.4-.4.7-.8 1-1.4l.5-2a8575.3 8575.3 0 011.6-10.1l.2-.3.4-.3v-.4l-2.7.9v.4h.5l.2.4c0 .4 0 .8-.2 1.3a8145.7 8145.7 0 01-1.8 10.6c-.2.5-.5.8-1 .9-.2 0-.3.1-.4 0v.4a3 3 0 01-1.6-1.4 10 10 0 01-1-4.3c0-1.7.2-3.2.6-4.5a6 6 0 012.3-3 857.4 857.4 0 00-.2-.6zm14.7-1.7l-.7-.2h-.2v4.4l-1.4-.3-2.4.8v1l2.4-.7 1.5.3v4.4h.1l.8.2v-4.5l3.3.7v-1l-3.3-.7v-4.4zm-61 11.8h-4.6v.5l.6.1c.2.1.2.3.3.6 0 .3 0 .7-.2 1.2a14775.8 14775.8 0 01-1.4 7.1 2.4 2.4 0 01-.2.5l-.3.3-.5.2v.3h4.1c1.5-.1 2.6-.3 3.4-.6.7-.4 1.3-.8 1.6-1.3.4-.5.5-1 .5-1.8 0-.4-.3-.8-.6-1.2-.4-.3-.8-.6-1.4-.8 1-.4 1.7-.8 2.1-1.3.5-.5.7-1.1.6-1.8a2 2 0 00-.5-1.2c-.3-.3-.7-.5-1.3-.7-.5-.1-1.3-.2-2.2-.1zm-29.9.8l-10 .3v.5l4 10.3h1.3l4.7-10.6zm29.5-.1h1.2c.3 0 .5.1.8.3l.5.5a1.5 1.5 0 01.2.6l-.1 1-.7 1-1 .5-1.8.2h-1.4l.8-4 1.5-.1zm72.1-8.5h-1.2c-.4.1-.6.3-.8.6l-.2.9c0 .7.3 1.3 1 1.7v.1c-.6 0-1 .2-1.4.6-.3.3-.4.7-.4 1.2a2.3 2.3 0 00.2 1c.1.3.3.6.6.8.3.3.7.4 1 .5a3.1 3.1 0 002.6-.6 306 306 0 01-.3-.6c-.4.2-.7.4-1 .4h-1c-.3 0-.6-.2-.8-.4-.2-.3-.3-.5-.3-1v-.5a1 1 0 01.7-.7 1.5 1.5 0 01.6-.1h.7l.6.2.2-.8-.9-.2c-.3 0-.6-.2-.8-.4-.2-.3-.4-.6-.4-.9 0-.5.2-.8.4-1 .2-.2.5-.3.9-.2.6 0 1 .5 1 1.3l.6.1.3-1.3c-.7-.4-1.3-.6-1.9-.7zm-103.2 10l-3.4 7.9-3-7.8 6.4-.2zm17.2 0l-4 3.7-4.3-3.5a821.6 821.6 0 01-1 .8l4.4 3.5-4.1 3.7.8.7 4.2-3.7 4.4 3.4 1-.8-4.5-3.4 4-3.7a697.8 697.8 0 01-.9-.7zm48.4-4.7l-1.1.4a15374 15374 0 01-.8 5.3 7 7 0 01-.7 1.5c-.3.4-.6.6-.9.7h-.5l-.2-.6a4.3 4.3 0 010-.7v-1l.5-4.4-1.1.4-.8 7.8a85.7 85.7 0 01-.3 2.9l.4.3.8-.3v-.5-.4a18.6 18.6 0 010-2.7l.5.2h.5c.4-.2.7-.4 1-.9.4-.4.7-1 1-1.9h.1v1c0 .4 0 .6.2.8h.7l.5-.2.5-.5.7-.9-.4-.3a3 3 0 01-.5.6 1 1 0 01-.3.3h-.3l-.1-.5v-1.2l.6-5.2zm-11.6 4.5l-4.3 1.4-5.6.1v1l5.7-.1a23184 23184 0 004.3-1.4l-.1-1zm53.6-6a1.2 1.2 0 00-.8.1c-.2.1-.5.3-.6.6l-.4 1.2-.2 1.8c0 1.2.2 2.2.5 3 .3.6.8 1 1.4 1.2.7.1 1.1-.1 1.5-.7.3-.7.5-1.6.5-3 0-1.2-.2-2.2-.5-3-.3-.6-.8-1-1.4-1.2zm0 .5c.2 0 .4.2.5.5.2.2.3.6.4 1.2a14.1 14.1 0 01-.1 4.6c-.2.5-.5.7-.8.6-.4 0-.7-.4-.8-1a17 17 0 010-5.1l.2-.7h.5zm-38.3 2.8l-.9.5c-.2.3-.5.6-.6 1l-.4 1.4v1.8c0 1.3.3 2.2.7 2.7.4.5.9.7 1.6.5.6-.3 1.2-.8 1.5-1.6.3-.8.4-1.8.4-3.1-.1-1.3-.3-2.2-.7-2.7-.4-.6-1-.7-1.6-.5zm-39 6.2c.9 0 1.5 0 2 .3.4.3.6.7.7 1.2a2.6 2.6 0 01-1.6 2.7 20.7 20.7 0 01-3.6.3l.9-4.5h1.6zm39-5.7l.6.1.5 1 .2 2.1c.1 1.1 0 2-.1 2.6-.1.6-.4 1-.8 1-.4.2-.7 0-1-.5-.2-.5-.3-1.4-.4-2.6a16.2 16.2 0 010-1.4l.1-1.1c0-.3.2-.6.3-.8l.6-.4zm-15 5.4l-4.2 1.4-5.7.2.1 1 5.7-.2 4.2-1.3-.1-1z" clip-path="url(#b)"/><path stroke-miterlimit="6.8" stroke-width="6" stroke="#1a1a1a" fill="none" d="M1576.9 1193c-13.9-.1-41 3-68.7 17.9-24 13-85.5 1.9-85.5 1.9-1.7 88.4-4.5 176.7-26 265.1h370.6c-21.5-88.4-24.4-176.7-26-265.1 0 0-61.5 11.1-85.6-2a145.3 145.3 0 00-73.7-17.7 70 70 0 00-5.1-.2z" stroke-linecap="round" stroke-linejoin="round"/><path stroke-miterlimit="6.8" stroke-width="6" stroke="#1a1a1a" fill="none" d="M1742.4 1451.5c-23-.2-31.6-1.9-56.3-11.7-33.2-13.2-79-19-104.1 11.7-13.4-16.3-32.5-22.3-52.6-22.4-17.7 0-36 4.5-51.6 10.7-24.6 9.8-33.2 11.5-56.3 11.7m321 0h19.3zm-321 0h-19.4 19.4zm160.5-258.4v285.2" stroke-linecap="round" stroke-linejoin="round"/><path paint-order="markers fill stroke" stroke-miterlimit="6.8" stroke-linecap="round" stroke-width="6" stroke="#1a1a1a" fill="none" d="M1566 1106.2c-1.5 14.3 10 42.1 10 42.1v44.7h.9l5 .1c1.7 0 3.7-.2 6-.1v-45.3s11.7-27.4 10.1-41.5c-1.3-12.1-16-32.8-16-32.8s-14.6 20.7-16 32.8zm16-2.6a2.5 2.5 0 110 5 2.5 2.5 0 010-5zm-6 374.3v44h11.9v-44h-6zm-175.8-15.3l-40.5 30 7 9.5 32.7-24.2h-2.7l3.5-15.3z" stroke-linejoin="round"/><path stroke-miterlimit="6.8" stroke-width="6" stroke="#1a1a1a" fill="none" d="M1691.6 1124.9s61.3 39.4 82.6 68c22 29.3 42.9 101.4 42.9 101.4s7.6-88.4-16.8-120.9c-23.9-31.7-108.7-48.5-108.7-48.5z" stroke-linecap="round" stroke-linejoin="round"/><path paint-order="markers fill stroke" stroke-linecap="round" stroke-width="6" stroke="#1a1a1a" fill="none" d="M1808.1 1160.3l-11.7 8.6a47 47 0 017.1 9.5l11.7-8.6zm-37.6 27.9l-34.3 25.4 5-.8.3 11.6 36-26.7a93.2 93.2 0 00-7-9.5zm-6.8 274.4l3.6 15.3h-2.8l32.7 24.2 7-9.5zm-419-340.8c-28.2 48.7 18.5 113.3 58.1 88l19.6 14.6.3-11.6 5 .8-18-13.4c12.3-35.4-10.3-40.1-33.4-42-25-1.9-29.5-20-31.5-36.4z" stroke-miterlimit="6.8" stroke-linejoin="round"/><path fill="#1a1a1a" d="M1336.6 960.7c-5.2.2-8.3 8.4-10.3 12.8-4.6 3.7-3.4-10.6-9-6.8 1.4 8-4.5 14.3-10.4 18.7-4.3 3.3-16.9 12.6-7.4 16.3 12.2-.7 14.2-16 24.4-20.4 6-.5 11.6 11.7 16.5 2.8 2.2-6.7 5-16 .2-22a6.8 6.8 0 00-4-1.4zm138 6.2c-6.6 0 5.5 9.2 11.3 18.6 5.7 9.5-9 9.4-15.7 11.5-6.7 2 6.7 7.7 20 11.3 13.4 3.6-4.8 10.9 4.2 14.6 9 3.8 32.4 7.4 26 13.8-6.4 6.4-29.5 0-18 8.3 1.5 1.1 3.2 2 4.8 2.7h41.6c-2-2.9-6.9-6.8-10.2-9.4-6.4-5-12.7-15.4-21.6-23.8s-21-21.5-24.8-32.2c-3.8-10.7-10.9-15.4-17.6-15.4zm-128.8 8.7c-.5 0-.9.6-1.1 1.8-.7 4.1 8.2 10.2 11.4 14.5 3.3 4.2 1.3 4.8-.8 7-2.2 2.2 2.9 2.5 6.1 4.1 3.3 1.6 10.7 5.2 11.9 9.6 1.2 4.4-3 5-5.8 5.2-2.8.2-6.9.5-6.6 4.5.3 4 2.8 6.3 6.8 9.7 4 3.5 10.7 10.1 16 11.7 5.1 1.5 8.4 3.4 12 .5 3.5-3 2.4-8.5-.6-12.1-3-3.6-5.8-6.2-9.7-11.7-4-5.5-10-13.2-16-19.5-6.1-6.3-13.5-13.5-17.7-19-2.9-3.7-4.8-6.4-6-6.3zm123.6 35.2l-2.3.1c-6.5 1-2.8 8.4-3.3 14.8a48.5 48.5 0 01-8.6 21.8l-.2.2h34.8c2.7-1 4.2-3.2 3.2-7.6-1.7-7.7-5.7-18.2-11.1-22.6-4.8-3.9-7.5-6.8-12.5-6.7zM1335 1018c-10.8-.3-14.6 22.3-15.3 29.6h37.4c-1.6-7.3-8.4-29.3-22-29.6z"/><path stroke-miterlimit="6.8" stroke-linecap="round" stroke-width="6" stroke="#1a1a1a" fill="none" d="M1329.4 725.4a35.5 35.5 0 004.8 35.3c-16-16.2-24.1-9.8-32.1-5 3.2 0 4.9 1.4 6.8 4.4.7 1 1 1.6-.2 2.2-16.8 7.6 6.4 15.3 25 11.5 2-.5 3.7-1.4 4.6-.2.8 1 2.2 3.4 2 5-.6 2.8-1.4 5.6-2.9 8.5-.3 1.5.6 2 2 2 1.7.5 3.5.1 5.3 0 2.6-.2 3-1.7 3.3-3.3a60 60 0 010-10c-.3-3.2.4-4 3-4.2l5.6.5c1.3.2 1.8 1.3 1 4-1 3.2-2.9 6.8-3.1 11.8-.2 2.9 1.8 2.6 3 3 2.8.8 5.7.4 8.5 0 1.6-.3 3-1.3 2.7-2.7-1.2-4-1.6-8.5-3.3-12.4-.8-1.8-.5-4.7 3-2.8.1.1 6.8 3.6 9.3 2.1 1.5-.8 1.9-3.8 0-5.2-4.4-3.1-5.4-7.5-6-12.4-1.2-3.2-3-4.8-6.3-4.8-4.7 0-6-7.5-2.5-7.5h4.3c2.1 0 1.7-3.7.6-5.5-1.4-1-5-.2-5.5-2.5l-.8-4c-.7-3.3-10.4-1.8-12.2 5a32.7 32.7 0 00-19.9-12.8zm20 12.8c-1.4 11.3.9 15.5 4.7 18.7" stroke-linejoin="round"/><path paint-order="markers fill stroke" stroke-miterlimit="6.8" stroke-linecap="round" stroke-width="6" stroke="#1a1a1a" fill="none" d="M1340.5 814.5v21h121v-21h-12v10h-19v-10h-8v10h-43v-10h-8v10h-19v-10zm5 21h111v7h-111zm9 7h93v107h-93zm-9 107h111v9h-111z" stroke-linejoin="round"/><path paint-order="markers fill stroke" stroke-miterlimit="6.8" stroke-width="6" stroke="#1a1a1a" fill="none" d="M1402 901a6.5 6.5 0 00-6.5 6.5v42h13v-42a6.5 6.5 0 00-6.5-6.5z" stroke-linecap="round" stroke-linejoin="round"/><path stroke-miterlimit="6.8" stroke-width="6" stroke="#1a1a1a" fill="none" d="M1406.5 1044.9l2.3-5 .5-1.2c-4.6-3.9-9.9-8.5-13.3-13.7a218 218 0 00-25.8-32.6 68.9 68.9 0 01-14.4-16.5c-4-6.1-2.8-8.8-15-16.3-1.8-1.2-4-1.7-6.1-1.7-12-.1-27.2 14.8-35 23-9.3 9.8-12.9 17.7-20.8 24a34.6 34.6 0 00-14.2 23.4c-.8 8.1-4.6 13.7-7.7 19.4" stroke-linecap="round" stroke-linejoin="round"/><path stroke-miterlimit="6.8" stroke-width="6" stroke="#1a1a1a" fill="none" d="M1558.6 1047.7s-12.5-10-18.7-16.3a245.2 245.2 0 01-18-20.9c-5.3-6.6-4.3-10.4-13.5-18.9-9.1-8.4-6.9-27.9-13.9-33.8-4.7-4-9-5.2-14.1-5.1v0c-2.3 0-4.8.4-7.6.8-9 1.4-28 28.5-33.9 41.9-5.8 13.4-12.7 13.2-17.1 18.1-4.4 5-10.4 20.7-13 26.4l-3.5 7.8m51.3-80.2h-105.8" stroke-linecap="round" stroke-linejoin="round"/><path d="M1379.5 767.5h43v57h-43z" paint-order="markers fill stroke" stroke-miterlimit="6.8" stroke-linecap="round" stroke-width="6" stroke="#1a1a1a" fill="none" stroke-linejoin="round"/><path stroke-miterlimit="6.8" stroke-width="6" stroke="#1a1a1a" fill="none" d="M1395.5 728.5v10h-10v11h10v6.5l-16 11.5h16v0h11v0h16l-16-11.5v-6.5h10v-11h-10v-10z" stroke-linecap="round" stroke-linejoin="round"/><path d="M1395.5 797.5h11v27h-11zm-8-25h2v2h-2zm12 0h2v2h-2zm12 0h2v2h-2zm-59 23h19v29h-19zm78 0h19v29h-19z" paint-order="markers fill stroke" stroke-miterlimit="6.8" stroke-linecap="round" stroke-width="6" stroke="#1a1a1a" fill="none" stroke-linejoin="round"/><path stroke-miterlimit="6.8" stroke-linecap="round" stroke-width="6" stroke="#1a1a1a" fill="none" d="M1472.6 725.4a35.5 35.5 0 01-4.8 35.3c16-16.2 24.1-9.8 32.1-5-3.2 0-4.8 1.4-6.8 4.4-.7 1-1 1.6.3 2.2 16.7 7.6-6.5 15.3-25 11.5-2-.5-3.8-1.4-4.7-.2-.8 1-2.2 3.4-2 5 .6 2.8 1.4 5.6 3 8.5.2 1.5-.7 2-2 2-1.7.5-3.6.1-5.4 0-2.6-.2-3-1.7-3.3-3.3a60 60 0 000-10c.4-3.2-.4-4-3-4.2l-5.6.5c-1.3.2-1.8 1.3-1 4 1 3.2 2.9 6.8 3.1 11.8.2 2.9-1.7 2.6-3 3-2.8.8-5.7.4-8.5 0-1.6-.3-3-1.3-2.6-2.7 1-4 1.5-8.5 3.2-12.4.8-1.8.6-4.7-3-2.8 0 .1-6.8 3.6-9.3 2.1-1.5-.8-1.9-3.8 0-5.2 4.4-3.1 5.4-7.5 6-12.4 1.2-3.2 3-4.8 6.3-4.8 4.7 0 6.1-7.5 2.5-7.5h-4.3c-2.1 0-1.7-3.7-.6-5.5 1.4-1 5-.2 5.5-2.5l.8-4c.7-3.3 10.4-1.8 12.2 5 5.2-6.9 11.8-11 19.9-12.8zm-19.9 12.8c1.3 11.3-1 15.5-4.8 18.7" stroke-linejoin="round"/><path d="M1385.5 940.5h2v2h-2zm-20 0h2v2h-2zm10 0h2v2h-2zm40 0h2v2h-2zm20 0h2v2h-2zm-10 0h2v2h-2zm-40-10h2v2h-2zm-20 0h2v2h-2zm10 0h2v2h-2zm40 0h2v2h-2zm20 0h2v2h-2zm-10 0h2v2h-2zm-40-10h2v2h-2zm-20 0h2v2h-2zm10 0h2v2h-2zm40 0h2v2h-2zm20 0h2v2h-2zm-10 0h2v2h-2zm-40-10h2v2h-2zm-20 0h2v2h-2zm10 0h2v2h-2zm40 0h2v2h-2zm20 0h2v2h-2zm-10 0h2v2h-2zm-40-10h2v2h-2zm-20 0h2v2h-2zm10 0h2v2h-2zm40 0h2v2h-2zm20 0h2v2h-2zm-10 0h2v2h-2zm-40-10h2v2h-2zm-20 0h2v2h-2zm10 0h2v2h-2zm40 0h2v2h-2zm-20 0h2v2h-2zm10 0h2v2h-2zm30 0h2v2h-2zm-10 0h2v2h-2zm-40-10h2v2h-2zm-20 0h2v2h-2zm10 0h2v2h-2zm40 0h2v2h-2zm-20 0h2v2h-2zm10 0h2v2h-2zm30 0h2v2h-2zm-10 0h2v2h-2zm-40-10h2v2h-2zm-20 0h2v2h-2zm10 0h2v2h-2zm40 0h2v2h-2zm-20 0h2v2h-2zm10 0h2v2h-2zm30 0h2v2h-2zm-10 0h2v2h-2zm-40-10h2v2h-2zm-20 0h2v2h-2zm10 0h2v2h-2zm40 0h2v2h-2zm-20 0h2v2h-2zm10 0h2v2h-2zm30 0h2v2h-2zm-10 0h2v2h-2zm-40-10h2v2h-2zm-20 0h2v2h-2zm10 0h2v2h-2zm40 0h2v2h-2zm-20 0h2v2h-2zm10 0h2v2h-2zm30 0h2v2h-2zm-10 0h2v2h-2z" paint-order="markers fill stroke" stroke-miterlimit="6.8" stroke-width="6" stroke="#1a1a1a" fill="none" stroke-linecap="round" stroke-linejoin="round"/><path stroke-width="6" stroke="#1a1a1a" fill="none" d="M1766.3 823a24.5 24.5 0 01-12.3 3.3 24.5 24.5 0 01-10.4-2.3l11.3 169z" stroke-miterlimit="6.8" stroke-linecap="round" stroke-linejoin="round"/><circle paint-order="markers fill stroke" stroke-width="6" stroke="#1a1a1a" fill="none" cx="1754" cy="801.8" r="24.5" stroke-miterlimit="6.8" stroke-linecap="round" stroke-linejoin="round"/><path fill="#1a1a1a" d="M1703.1 782.2c-32.6.7-70 1.3-73.9.8 2.2.7 4.2 3.2 5 4.3a94 94 0 0037 31.8c19.8 10.3 46.1 10 72.7 9.4l-.3-4.5a24.5 24.5 0 01-14-19.8c-6-11-10.2-22.3-26.5-22zm-73.9.8l-.3-.2.3.2zm175.8-.8c-16.4-.3-20.5 11.1-26.6 22.2a24.5 24.5 0 01-12.1 18.6l-.4 5.5c26 .6 51.7.7 71-9.4a94 94 0 0037-31.8c.8-1 2.9-3.6 5-4.3-4 .5-41.3 0-73.9-.8zm73.9.8c.3 0 .4-.1.3-.2l-.3.2zm-180.8 5.4c18 5.3 23.1 7.7 29.2 23.6 3.4 9-4.7 6.5-6.2 1.9-4.2-12.7-15.1-20-23-25.5zm112 0c-8 5.5-19 12.8-23 25.5-1.6 4.6-9.7 7-6.3-1.9 6.1-16 11.2-18.3 29.2-23.6zm-153.1 1.1c6.4.2 10.1 1 19.9 3-5.6.2-15.6 2.4-19.2 3.8-4.2 1.6-9.7-5.3-3-6.6a11 11 0 012.3-.2zm194.2 0c.9 0 1.6 0 2.2.2 6.7 1.3 1.2 8.2-3 6.6a77.7 77.7 0 00-19.2-3.8c9.8-2 13.5-2.8 20-3zm-168.8 8.3c-2 .7-13.6 5.6-16.2 8.7-3 3.3-11.9-2-6.2-5.8 4.6-3.1 19.8-2.5 22.4-3zm143.3 0c2.6.4 17.9-.2 22.4 2.9 5.7 3.9-3.3 9-6.2 5.8-2.6-3-14.1-8-16.2-8.7zm-136.9 4.9c-6 3.4-9.2 6.3-12 10-2 2.6-12.7.7-6-3.1 6.5-3.8 8.5-4.7 18-7zm130.5 0a50.3 50.3 0 0118 6.9c6.7 3.8-4 5.7-6 3.1-2.8-3.7-6-6.6-12-10zm-124.1 3.4c-1 1.3-4.7 8-5 11.8-.3 3-8.7 2-6.5-2 2.4-4.6 10-8.7 11.5-9.8zm117.7 0c1.5 1 9.2 5.2 11.5 9.7 2.2 4.2-6.2 5.2-6.5 2.1-.3-3.8-4-10.5-5-11.8z"/><path stroke-linecap="round" stroke-width="6" stroke="#1a1a1a" fill="none" d="M1753.6 781.6c10.9 0 9.1 12.7-.1 12.7-15 0-19.3 27.4-.1 27.4" stroke-miterlimit="6.8" stroke-linejoin="round"/><path paint-order="markers fill stroke" stroke-miterlimit="6.8" stroke-width="6" stroke="#1a1a1a" fill="none" d="M1713 857.5a86.8 86.8 0 00-14 9.3l-11.6-10a102 102 0 00-10.7 10.6l10 11.6a86.8 86.8 0 00-9.2 14l-14.6-4.9a102 102 0 00-5.8 14l13.7 7a86.8 86.8 0 00-3.2 16.4l-15.3 1a102 102 0 00-.3 7.5c0 2.6.1 5.1.3 7.7l15.3 1.1a86.8 86.8 0 003.3 16.4l-13.7 6.9a102 102 0 005.8 14l14.6-4.9a86.8 86.8 0 009.3 13.9l-10 11.6a102 102 0 0010.7 10.7l11.6-10a86.8 86.8 0 0013.9 9.2l-4.9 14.5a102 102 0 0014 5.8l7-13.7a86.8 86.8 0 0016.2 3.2l1.1 15.3 7.5.3a102.1 102.1 0 007.7-.3l1.1-15.3a86.8 86.8 0 0016.3-3.3l6.9 13.8a102 102 0 0014-5.9l-4.8-14.5a86.8 86.8 0 0013.7-9.3l11.6 10.1a102 102 0 0010.8-10.8l-10-11.6a86.8 86.8 0 009.2-13.7l14.5 4.8a102 102 0 005.9-14L1837 959a86.8 86.8 0 003.3-16.3l15.3-1 .3-7.8a101.9 101.9 0 00-.3-7.5l-15.3-1a86.8 86.8 0 00-3.2-16.4l13.7-6.8a102 102 0 00-5.8-14l-14.5 4.8a86.8 86.8 0 00-9.2-13.9l10-11.6a102 102 0 00-10.7-10.8l-11.6 10a86.8 86.8 0 00-13.9-9.2" stroke-linecap="round" stroke-linejoin="round"/><path paint-order="markers fill stroke" stroke-miterlimit="6.8" stroke-width="6" stroke="#1a1a1a" fill="none" d="M1744.8 842.8a51.5 38.5 0 00-42.3 37.8 51.5 38.5 0 0047.4 38.4zm20.1.2l-5 75.9a51.5 38.5 0 0045.6-38.3 51.5 38.5 0 00-40.6-37.6zm-15 76a39.5 24.5 0 00-35.4 24.4 39.5 24.5 0 0036.3 24.4 21.5 11.5 0 00-18.3 11.4 21.5 11.5 0 0019.8 11.5 8.5 8.5 0 00-6.8 8.3 8.5 8.5 0 008.5 8.5 8.5 8.5 0 008.5-8.5 8.5 8.5 0 00-6.8-8.3 21.5 11.5 0 0019.8-11.5 21.5 11.5 0 00-18.2-11.4 39.5 24.5 0 0036.2-24.4 39.5 24.5 0 00-33.7-24.2l-5 73.9z" stroke-linecap="round" stroke-linejoin="round"/><path stroke-width="6" stroke="#1a1a1a" fill="none" d="M1315.8 655.2h-100.2v714.7c0 56.8 68 143.7 193 189.8l88.2 32.6c24.7 9.2 70.5 18.8 85.2 42.3 14.7-23.5 60.5-33.1 85.2-42.3l88.2-32.6c125-46.1 192.9-133 192.9-189.8V655.2H1889m-673.4 392.5h732.7M1582 693.2v354.5m423.9-497.3c11-.1 19.8 2.2 25.6 7.6 11.8 11.1 6.5 26.2 4 33-9-9.2-21.4-17.3-40.2-6.5-10.2 5.8-20.1 18.6-9.2 32.8 8.7 11.2 27.8 16 35.6 8.3 6.8-6.7 12-15.2 22.9-15.8 12.5-.7 23.3 8.2 22.3 18.7-1.5 17.6-25 24-46.4 23.2-10-.3-21-1.1-31.2-3.5.9-9.5-.2-18.8-3.7-26a43 43 0 00-35.4-25.6c1.1-16 9-31 21.6-38.7l5-1.6c3-1 5.7-2.1 8.5-3.5 7.4-1.5 14.3-2.3 20.6-2.4z" stroke-miterlimit="6.8" stroke-linecap="round" stroke-linejoin="round"/><path stroke-width="6" stroke="#1a1a1a" fill="none" d="M1982.4 381.3l-.3 2c-4.3 27.4-9 38-13.2 43.2 13.1 14.4 16.4 33.9 12.4 53.1-1.8 9-6 15.6-14.5 21.5 1-9.3 1-12.3-2.7-19a18.3 18.3 0 00-7.5-6.8c-.5 2.5-1.2 5-2.4 7.6-6.4 13.7-15.5 8.2-16.3 14.5-.8 6.3 7.6 5.6 7 12.6-.7 7-3.7 12.6-18 8.2-14.8 11.1-27.5 14.4-38.3 12.6l.6 2.5a38.5 38.5 0 0019.4 24.7 19.3 19.3 0 010-.1 19.3 19.3 0 0119.3-19.3 19.3 19.3 0 0119.3 19.3 19.3 19.3 0 01-.7 5.2c10.3-1 20.8-3.6 30.3-6.8 55.9-18.4 81.6-119.3 27.6-161-6.3-4.9-13.8-9.7-22-14zm-24 58l-.1.3c-1 5.1-1.2 10-1.2 14.7 2.6-4.7 2.8-9.9 1.3-15zm-116.6 19.6a1298.4 1298.4 0 01-36 79c6 .2 12.1 1 18.4 2.2a546 546 0 0024.2-49.4l1.1-2.5a89.2 89.2 0 01-5-28l-2.7-1.3zm-42.5 96.4h-2.7c-12.8 23.4-25.3 41.6-37.3 52.4 19-8.3 36-22.3 54.1-49.8a40.6 40.6 0 00-14.1-2.6z" stroke-miterlimit="6.8" stroke-linecap="round" stroke-linejoin="round"/><path paint-order="markers fill stroke" stroke-linecap="round" stroke-width="6" stroke="#1a1a1a" fill="none" d="M1908.6 557.9a-19.3 19.3 0 0019.3 19.3-19.3 19.3 0 0019.3-19.3-19.3 19.3 0 00-19.3-19.3-19.3 19.3 0 00-19.3 19.3" stroke-miterlimit="6.8" stroke-linejoin="round"/><path stroke-width="6" stroke="#1a1a1a" fill="none" d="M1982.7 672.4a883.4 883.4 0 004.7 4.5c2.7 12.8 6.6 30.8 9.2 42.2a27 27 0 01-1.9 16.8 15.6 15.6 0 01-16.5 7.6c-7.1-1.4-13.2-10-13.1-17.2 0-6 .3-11 2.2-16 3.2-8.3 7.4-20 10.9-29.9 1.6-2.4 3.1-5.1 4.5-8z" stroke-miterlimit="6.8" stroke-linecap="round" stroke-linejoin="round"/><path stroke-width="6" stroke="#1a1a1a" fill="none" d="M1941.8 596c19.8.1 34.8 7.6 43.8 26.2 3.9 8 4.8 18.3 3.3 28.8l-19.9-18.8c0-2.7-.7-5.3-2-8-3.5-7.7-12-11-19.6-12.1a781 781 0 00-17-15.1c2.3-.5 4.8-.8 7.4-.9a85 85 0 014 0zm-31.3 9.6c4.7 3.7 9.3 7.5 13.9 11.5-2.3 2.1-3.5 4.8-2.5 7.7 2-1.6 4.3-3 6.7-4 7.3 6.5 14.4 13.3 21.6 20.2-3 4.5-7.3 8.8-12 11.6h-25.4a29.6 29.6 0 01-15.2-25.4c.1-8 5-15.8 12.9-21.6zm51 46.5c7 6.8 14 13.6 21.2 20.3a47.5 47.5 0 01-13.8 18 69 69 0 01-23 10v-34.6a30 30 0 0011-7.8l4.7-5.9zm159.3-112.4c6.4 0 13.6 2.5 20.6 9.3 16.2 15.4 11.2 21.3 11.6 31.7 11.1-4 25.4-8.9 38-7 12.6 1.9 32.6 7 42.7 36.6 10.2 29.6-9 69.4-31.2 71.6-22.1 2.3-27.2-4.6-26.6-24.9.6-20.2 19-9.5 22.3-10.8 3.3-1.3 9.1-4.7 1-15.6-8-10.8-20.7-15-33.5-12.2-12.7 2.8-23.6 13-28.6 30.9 13.7-1.8 32 9.3 34.2 22.7 2.2 13.4-5.9 24-19.5 27.4 6.4-15.4 5.9-29.2-14.4-23.8-25.1 5.7-44.6 18.7-74 15-6.8-1-13.5-2.2-20.1-3.8-11.7-6.2-22-8.6-33.2-16.9-1.8-1.3-4.1-3.3-6.8-5.7 73.6-5.4 104.2-44.2 90-95.5 8.9 1.2 25.7 8.2 21 26 5.1-3.7 10-16.8 7.4-29.7-2.6-13-11.3-13.8-21.1-15.3 4.6-5.5 11.8-10 20.2-10zm-34.4 183.7c23.3.4 70.7 6.4 96.7 21a143.5 143.5 0 0171.7 132.3c-3.1 73.2-37.1 134.4-101.3 152.4a164.3 164.3 0 00-78 46.8c-11.3 13.6-23.6 31.4-17.5 42 5.5 9.6 22.5 3.6 36.6.1 2.3 22.3-13.9 41.7-44.9 41.7-5.4 0-10.1-1-14.3-2.9l-1.8-10.4c-4.9-32.2-12.6-63.8-17.2-94.3a60.6 60.6 0 0048.4-6.8c-11.2-.4-34.8-4.4-51-16-.3-3.3-.6-6.5-.7-9.8-.5-11.7-.6-23.4-.4-35a175 175 0 0042 19c28 9.7 52.9 12.4 73.3 5.7 27.5-9 30.7-25.1 35.4-40.3-19 21.2-53.3 27-93.6 27-20.2 0-42-11.8-56.5-27.5 1.3-24.3 4.2-48.6 8.3-73.2 2-12.7 6.3-30.3 11-48.3 20-13.3 44.2-13 61-4.2-135 92.7 109 200.7 132.1 27 15.7-117.7-85.4-133.4-130.1-134.9a164 164 0 00-9.2-11.4zM1964.3 995a89 89 0 0012.2 31c2.2 36.2 10.6 71.1 16.8 104-5.6 17.8-2.1 37.5 7.8 57.7a32 32 0 003.9 6c4 19.8 8 38.8 9.4 58.8-19-.2-50.5-11.1-58.7-32.6-14.5-38.2-2.2-59.4 7.6-75.7-6 6.3-12.6 8.3-17.5 7.3V1115c7.3-11.9 18.8-20 29.1-31.9-12.5-2.6-23.4-14.5-29-27.3v-39.3c4-10.7 10.6-19.3 18.4-21.5zm90.5 209c0 4.6 0 17-5.3 28.1-1.2-9.1-2.7-18-4.4-26.6 3.4-.4 6.7-1 9.7-1.6z" stroke-miterlimit="6.8" stroke-linecap="round" stroke-linejoin="round"/><path stroke-width="6" stroke="#1a1a1a" fill="none" d="M2095.6 734.8c44.7 1.5 145.8 17.2 130.1 135-7 52.2-34 79-64.5 88.3-4 .4-8.2.7-12.5.7-48.8 0-71-34.2-71-57.4 0-57.3 64.4-70.8 84.3-36.5 11.5 19.7-12.4 40.1-.5 53.4 7.4 8.4 13.7 5.3 19.7 1.4 36-23.5 28-96.5 3-131.4a114.6 114.6 0 00-82.2-44c-2-3.2-4.1-6.4-6.4-9.5zm-129.7 51.4a39 39 0 0041.1 14.6c-3.5 12.3-7.4 26-11 40-18.7-6.4-39.4-31.3-30.1-54.6zm-1.9 45.4c6 11 18.7 17.2 29.7 18.2-2.2 8.8-4.2 17.4-5.9 25.4-13-7-25.2-18.8-23.8-43.6z" stroke-miterlimit="6.8" stroke-linecap="round" stroke-linejoin="round"/></svg>
